/* XPM */
static char *result[] = {
/* columns rows colors chars-per-pixel */
"36 50 238 2 ",
"   c #2E0D04",
".  c #26130C",
"X  c #2C120C",
"o  c #35150C",
"O  c #2C1712",
"+  c #341611",
"@  c #372619",
"#  c #1C2426",
"$  c #292525",
"%  c #312E29",
"&  c #2C3433",
"*  c #273B35",
"=  c #373632",
"-  c #461B0C",
";  c #591D09",
":  c #441C13",
">  c #4D260A",
",  c #5D2306",
"<  c #58250B",
"1  c #5B240A",
"2  c #482617",
"3  c #592914",
"4  c #67260A",
"5  c #732605",
"6  c #752A06",
"7  c #782A06",
"8  c #742B0A",
"9  c #7B2C0B",
"0  c #662B16",
"q  c #792F15",
"w  c #7B3314",
"e  c #483731",
"r  c #7A3925",
"t  c #35413D",
"y  c #524437",
"u  c #594638",
"i  c #6D4832",
"p  c #674738",
"a  c #754A37",
"s  c #2B4846",
"d  c #344846",
"f  c #385054",
"g  c #3E5F62",
"h  c #356C69",
"j  c #43484A",
"k  c #465652",
"l  c #495054",
"z  c #725245",
"x  c #4D655D",
"c  c #465E62",
"v  c #4A5F63",
"b  c #456264",
"n  c #496266",
"m  c #4A6469",
"M  c #586869",
"N  c #48797B",
"B  c #577678",
"V  c #6E6E69",
"C  c #8B310E",
"Z  c #893716",
"A  c #8D3A15",
"S  c #8E3C1C",
"D  c #943B14",
"F  c #963917",
"G  c #9B3C14",
"H  c #933C1B",
"J  c #923D22",
"K  c #8E461D",
"L  c #9B4115",
"P  c #95411B",
"I  c #9C431C",
"U  c #A3431E",
"Y  c #A3471C",
"T  c #8C4424",
"R  c #8E4828",
"E  c #964627",
"W  c #9D4B25",
"Q  c #964A2B",
"!  c #9C4C2B",
"~  c #9B532C",
"^  c #835536",
"/  c #8F5137",
"(  c #8B533D",
")  c #A74824",
"_  c #A44B24",
"`  c #A24C2B",
"'  c #AA4E2A",
"]  c #AA5529",
"[  c #AA5A2A",
"{  c #B55725",
"}  c #B45B2B",
"|  c #A64A34",
" . c #A75635",
".. c #A95B34",
"X. c #AC5D3C",
"o. c #B35C33",
"O. c #B35A3A",
"+. c #A5613D",
"@. c #AA613E",
"#. c #B4633D",
"$. c #BB653C",
"%. c #BC683D",
"&. c #CC6634",
"*. c #C2653C",
"=. c #C96739",
"-. c #C46A3C",
";. c #CA6A3D",
":. c #D46937",
">. c #D1683B",
",. c #D6723E",
"<. c #8B5642",
"1. c #875845",
"2. c #955F44",
"3. c #AA5C43",
"4. c #B25E42",
"5. c #9C624A",
"6. c #AB6344",
"7. c #AA6546",
"8. c #B56542",
"9. c #BB6543",
"0. c #BC6A44",
"q. c #B56748",
"w. c #BA664A",
"e. c #B56A4A",
"r. c #BB6A49",
"t. c #B06E50",
"y. c #8D7274",
"u. c #C26642",
"i. c #CB6742",
"p. c #C36B45",
"a. c #CC6C43",
"s. c #C36C49",
"d. c #CA6E4A",
"f. c #D26B43",
"g. c #D06C48",
"h. c #C57347",
"j. c #CE7145",
"k. c #C4724C",
"l. c #CC724B",
"z. c #D57243",
"x. c #DA7747",
"c. c #D57248",
"v. c #DB7649",
"b. c #DC7A4B",
"n. c #CC7453",
"m. c #C57956",
"M. c #CC7D55",
"N. c #D37C55",
"B. c #DC7D53",
"V. c #E37645",
"C. c #E27A45",
"Z. c #E37C4C",
"A. c #E77650",
"S. c #E37C51",
"D. c #34837C",
"F. c #76826E",
"G. c #77847B",
"H. c #D38053",
"J. c #DB845A",
"K. c #E5814E",
"L. c #E58355",
"P. c #E38A67",
"I. c #2F7D82",
"U. c #318484",
"Y. c #478786",
"T. c #5A8887",
"R. c #549190",
"E. c #5B989A",
"W. c #66858A",
"Q. c #6D9189",
"!. c #688A96",
"~. c #738B97",
"^. c #679798",
"/. c #6B949D",
"(. c #72939C",
"). c #79969B",
"_. c #59A69D",
"`. c #6DA49E",
"'. c #5C9CA4",
"]. c #5B9DA8",
"[. c #5A9CB5",
"{. c #6594A3",
"}. c #6B95A3",
"|. c #689CA8",
" X c #7293A3",
".X c #7399A5",
"XX c #699EB2",
"oX c #4CABAB",
"OX c #59A7A9",
"+X c #58B3AC",
"@X c #5BABB4",
"#X c #4DB7B6",
"$X c #59B8BA",
"%X c #68A7A8",
"&X c #77A6A5",
"*X c #66A9B4",
"=X c #65B7BA",
"-X c #77B8B5",
";X c #4BC4B8",
":X c #55C3BC",
">X c #69C3BD",
",X c #5ABBC2",
"<X c #65BCC6",
"1X c #5AC9CA",
"2X c #58D2CC",
"3X c #5BD4D2",
"4X c #58DAD5",
"5X c #55DEDC",
"6X c #63C4CB",
"7X c #66C6C8",
"8X c #75C9CA",
"9X c #64D3CD",
"0X c #67CDD2",
"qX c #70CCD1",
"wX c #63D4D3",
"eX c #68D9D6",
"rX c #77D5D7",
"tX c #5BE3DA",
"yX c #6CE1DE",
"uX c #62DEE2",
"iX c #57E8E6",
"pX c #69E7E6",
"aX c #8B9694",
"sX c #93989F",
"dX c #8AA1A5",
"fX c #94AAAA",
"gX c #9DB5B6",
"hX c #B5BDBC",
"jX c #96C1BF",
"kX c #B8C7C7",
"lX c #BFD0D1",
"zX c #C7CFCE",
"xX c #E2DBDC",
"cX c #DDE2E2",
"vX c #E7EAEA",
"bX c #EFF1F0",
"nX c #311A1C",
"mX c #311A1C",
/* pixels */
"mXmXmXmXmXmXmXmXmXmXmXmXxXsXfXU.I.I.I.I.I.aXhXvXmXmXmXmXmXmXmXmXmXmXmXmX",
"mXmXmXmXmXmXmXmXmXmXcX).%X:X3X1X,X<X,X,XtX;X+XT.aXvXmXmXmXmXmXmXmXmXmXmX",
"mXmXmXmXmXmXmXmXmXfX%XrX+X@X*X0X%X X~.7X$X%X|.<XqXN gXvXmXmXmXmXmXmXmXmX",
"mXmXmXmXmXmXmXlXN 8XiX,X(.Q.}.@XY.N B E.XX X~.OXeXeX+Xh dXmXmXmXmXmXmXmX",
"mXmXmXmXmXmXgX4X7X{.{.=X#Xg k @ : - : O t v N ,X*X}.%X3X#XdXnXmXmXmXmXmX",
"mXmXmXmXmXkX=X1X<X|.~.c k : > 4 7 q 5 8 < > e f B ).].qX=X_.dXmXmXmXmXmX",
"mXmXmXmXgX-XE.E.*X^.$ 2 , 9 9 #.o...X.8.C 7 8 ; + $ >XOX^.&X_.vXmXmXmXmX",
"mXmXmXhX3X*X/.}.B % 0 q S X._ a.=.9.0.s.Z B.O.S 0 3 = W..X^.;X-XvXmXmXmX",
"mXmXmXR.wX<X|.M 2 8 F X.8.s.] ;.;.8.0.r.H A.g.i.! T < e W.$XeX+XW.bXmXmX",
"mXmXfX8X{.*XY.: 4 ] K.h.0.p.' i.i.0.s.w.S Z.-.l.j.c.9 > t %X{.*XY.kXmXmX",
"mXnX/.@X X Xd < | U Z.l.i.l.' i.a.s.h.9.H Z.*.g.z.u.L O.  M dX].*XB bXmX",
"mXzX+X#XXXM @ q X.W v.d.u.l.` i.a.;.d.u.H C.8.p.c.0.L *.0 $ ^.@X0Xh kXmX",
"mXY.>X9X=Xk >  .X.G v.d.a.s.` =.f.j.l.0.H V.9.s.a.s.D S.Q : T.qX<X7Xk nX",
"mXD.*X XN + T %.3._ v.p.c.s.` -.i.f.l.0.S C.9.p.a.p.G S.o.0 # E.{.qXs bX",
"mXI.$X(.B - ~ r.4.U v.9.d.0._ ;.a.j.d.u.H V.0.%.a.l.G B.9.r $ ~./.9Xf vX",
"kX$XoXW.e 4  .q.3.W B.9.s.0.W =.f.j.p.s.S Z.0.r.a.j.G b.u.J 2 f OXoXoXdX",
"^.iXyX<X+ o.c.9.#._ b.%.p.q.` f.:.a.-.p.H C.*.s.d.a.L K.%.O.; s rXpXtXb ",
"&X1X{.T.. ..c.d.X.Y H.0.%.0.E i.x.p.a.s.H B.%.0.d.s.D L.$.0.3 * |.OX6Xm ",
"^.1XaXW.: F ' Q R S ` Q ' E S | ` ` ! ! Z | E ! ! E C ] _ E 4 e ).OX3Xn ",
"|.6X Xz =.>.-.-.=.>.:.=.-.=.&.:.&.-.-.&.&.&.&.-.*.;.;.-.-.-.&.#.V [.2Xn ",
"^.iX8Xi K.i.n.M.k.h.s.k.H.m.p.u.%.k.M.h.0.a.h.H.M.p.u.r.H.M.f. .F.wX4Xn ",
"`.3X^.a h.X.3.7.3.X.@.+.7.6.4.4.@.7.6.X.@...@.+.6.X.8.@.7.+. .5.V OX4Xc ",
"^.<X.XG.< 8 6 4 8 6 6 6 6 6 7 7 6 7 5 6 7 7 6 8 7 6 5 5 8 6 4 u ).|.3Xn ",
".X1X{.~.o K ] ~ R Z } ` W ~ Z ) [ ` ! [ Z } ` ! ! ! Z } ] _ 3 & {.].2Xc ",
"%XiXeX:X+ [ z.0.+.Y K.l.s.9.! ;.c.s.9.k.H b.p.e.e.e.I K.a.p.1 s jXuXiXc ",
").9X*XE.o } f.4.6.) x.a.u.w.` :.z.s.9.M.H b.u.w.w.8.G Z.f.a.4 * @XoX5Xb ",
"&X3X/.T.. { t.z 2.' z.a.u.w.! >.>.d.p.l.D b.*.w.0.0.D K.>.h.1 & .X.XwXm ",
"&X6X X!.X #.^ aXe W V.p.j.r.W ;.f.d.a.h.A Z.*.s.0.0.D K.;.p.4 & {.|.wXc ",
"%XtXeX$XX ] e.V z ) v.w.;.s.` -.;.s.f.h.S S.$.p.u.9.I L.a.f.4 d qX5XtXm ",
"&X2X*X'.O ] c.u 5.) A.q.h.s.~ i.;.s.c.-.H Z.%.s.p.q.I K.f.h.> t *X@X4Xm ",
"-X0X(.~.X } l.i 5.) b.e.p.s.` ;.;.p.c.p.S Z.$.s.p.8.L Z.z.u.4 &  X{.2Xm ",
"&X6X~.R.X { n.u 5.Y c.e.a.s.` i.;.s.z.p.S Z.$.p.s.8.I b.>.0.< % .X{.2Xc ",
"&XtX2X@XO { M.i 5.L x.r.0.p._ a.;.0.z.s.H Z.-.a.a.r.D Z.;.p.4 s 7X6XtXb ",
"%XuX>XOX. [ 5.y.i W c.q.s.s.] a.a.r.z.d.H Z.p.a.a.s.H K.;.j.4 * ,X$X4Xn ",
"XX<X^.W.o { ^ G.u I b.e.9.s._ -.a.p.a.k.H Z.d.f.l.s.H J.u.s.< % }.}.2Xv ",
"&X<X{.W.X } k.1.5.Y Z.q.8.s.' -.a.r.0.r.H Z.p.;.a.r.A b.-.%., * ^.}.9Xm ",
"&XiX$X+XX [ z.w.X.) v.u.4.p.' f.;.r.9.0.H C.f.s.a.0.L K.$.e.4 t ,X1X4Xb ",
"&XuX<X+X+ [ f.u.#.) z.0.p.k.' d.a.q.w.w.H K.a.u.d.d.G K.*.8.> s <X=XtXn ",
"&X8X XW.o } N.q.@.` N.w.s.s.` $.p.e.w.8.E v.f.p.u.s.L h.%.#.4 = !.^.2Xn ",
"`.1X/.V r C F Z Z C F Z F F C C D H C F C G F Z A D C P Z A w i Q.'.eXm ",
"%X3X%Xr L.Z.J.P.B.S.B.N.P.N.L.b.K.H.J.J.B.S.B.P.J.S.B.B.P.J.A.u.V $X5Xb ",
"%XyX>Xa L.-.r.t.p.p.%.r.H.e.p.p.-.r.M.r.u.p.p.k.m.s.*.0.m.m.%. .V eX5Xn ",
"&X6X/.V ~ E P R T T T T R R K T R J R T Q Q R R R J E T T T R a G.E.wXn ",
"`.,X~.Q.o 9 7 9 q 5 9 6 8 8 9 9 9 9 9 9 5 9 7 9 q 9 5 9 9 7 , e ).|.2Xb ",
"^.2X%XE.O [ x.s.| E c.O.0.%.W #.-.p.0.$.I f.-.9.9.$.F N.O.#.0 * @X@X4Xb ",
"^.iXrX=XX { z.s.$.) b.p.l.0.W a.;.c.d.l.H Z.*.a.d.w.P B.%.0.; d wXwX5Xb ",
"^.6X{.E.X { z.d.9.) c.s.p.9.W ;.;.l.u.l.H Z.*.s.d.r.L B.%.r.1 * '.'.2Xc ",
"T.6X!.W.X [ z.s.9.I v.p.u.9.` ;.,.l.u.n.H b.*.s.s.8.A B.0.9.3 = (./.2Xc ",
"B >XQ.W.  ] j.0.#.W b.s.u.8.` i.z.h.%.h.S c.0.w.4.4.H M.r.q.3 & ~.!.>XM ",
"zXd k j y z <.a z p ( / ( <.p a ( <./ <.z <.( <.<.1.r 1.( 1.e j l j x cX"
};
