/* XPM */
static char *result[] = {
/* columns rows colors chars-per-pixel */
"31 50 228 2 ",
"   c #391607",
".  c #3C1608",
"X  c #3B1A0A",
"o  c #36271D",
"O  c #1B1E22",
"+  c #1D2325",
"@  c #222426",
"#  c #222529",
"$  c #2D232A",
"%  c #252C2D",
"&  c #292E2E",
"*  c #342F29",
"=  c #28302F",
"-  c #252D32",
";  c #2A2D32",
":  c #263133",
">  c #2A3133",
",  c #26363E",
"<  c #441709",
"1  c #441E11",
"2  c #731F04",
"3  c #542007",
"4  c #472618",
"5  c #45271A",
"6  c #47291B",
"7  c #57311F",
"8  c #6E2303",
"9  c #782B0A",
"0  c #762D12",
"q  c #723417",
"w  c #472A22",
"e  c #573124",
"r  c #71482A",
"t  c #664639",
"y  c #355656",
"u  c #3E6B68",
"i  c #3D7369",
"p  c #3F6E71",
"a  c #445A59",
"s  c #595C5E",
"d  c #6C5649",
"f  c #6E5649",
"g  c #6F6A54",
"h  c #686358",
"j  c #4A5C67",
"k  c #525F66",
"l  c #5C5C62",
"z  c #625D65",
"x  c #426E66",
"c  c #4A6668",
"v  c #4C646C",
"b  c #436C6A",
"n  c #5B6265",
"m  c #506169",
"M  c #41726B",
"N  c #496B72",
"B  c #517675",
"V  c #676B6D",
"C  c #6E7574",
"Z  c #707070",
"A  c #74787A",
"S  c #852E0C",
"D  c #83330D",
"F  c #883817",
"G  c #993E19",
"H  c #873B21",
"J  c #9F471E",
"K  c #A0411A",
"L  c #894528",
"P  c #994626",
"I  c #9C4B2C",
"U  c #9A4E35",
"Y  c #8B5235",
"T  c #9C5432",
"R  c #995738",
"E  c #A54825",
"W  c #A44D2A",
"Q  c #B74F23",
"!  c #AD5125",
"~  c #A6522D",
"^  c #AB522C",
"/  c #B4562C",
"(  c #A34E31",
")  c #A65432",
"_  c #AB5433",
"`  c #AB5736",
"'  c #B25632",
"]  c #B35A34",
"[  c #BC5C35",
"{  c #B5573A",
"}  c #B35A3A",
"|  c #BC5D39",
" . c #AD653A",
".. c #B86439",
"X. c #BC643B",
"o. c #C25E36",
"O. c #CA642F",
"+. c #C56335",
"@. c #CA6435",
"#. c #CE6B34",
"$. c #C4643B",
"%. c #CB643B",
"&. c #C6683B",
"*. c #CC6B39",
"=. c #D06B34",
"-. c #D26B39",
";. c #DB6F3C",
":. c #D5723D",
">. c #DB723C",
",. c #E7773F",
"<. c #8E5C42",
"1. c #A65E45",
"2. c #8A684E",
"3. c #A7674A",
"4. c #B76947",
"5. c #BB764A",
"6. c #A86C55",
"7. c #AC7151",
"8. c #B9795B",
"9. c #947068",
"0. c #A47D6B",
"q. c #C76B47",
"w. c #D46F46",
"e. c #C77647",
"r. c #C3734A",
"t. c #CC7A4C",
"y. c #D47344",
"u. c #DC7443",
"i. c #D5744A",
"p. c #DA7748",
"a. c #C77A56",
"s. c #D87C54",
"d. c #E17543",
"f. c #E67A4C",
"g. c #F77E45",
"h. c #C57D62",
"j. c #FA843E",
"k. c #848874",
"l. c #9A857E",
"z. c #B28C71",
"x. c #D38354",
"c. c #FC8345",
"v. c #F9874A",
"b. c #F4914C",
"n. c #E99857",
"m. c #ECA356",
"M. c #CA8263",
"N. c #E59761",
"B. c #EEAC6D",
"V. c #F4AA65",
"C. c #F8AD65",
"Z. c #F5AC6C",
"A. c #FAAD6A",
"S. c #F6AD71",
"D. c #EDB272",
"F. c #5C7E8A",
"G. c #627B85",
"H. c #747C81",
"J. c #847E87",
"K. c #3B8285",
"L. c #488685",
"P. c #5C848A",
"I. c #5C8A96",
"U. c #599298",
"Y. c #698683",
"T. c #6E928D",
"R. c #6A8C96",
"E. c #659797",
"W. c #64949C",
"Q. c #6B949D",
"!. c #779599",
"~. c #6CA49B",
"^. c #5F9DA1",
"/. c #689AA4",
"(. c #7194A2",
"). c #45AAA3",
"_. c #5AA7A7",
"`. c #5BA5AC",
"'. c #5BABB4",
"]. c #58B5B6",
"[. c #67A3AA",
"{. c #61AAAF",
"}. c #6AA9A8",
"|. c #64A9B3",
" X c #66B4B5",
".X c #59C9BD",
"XX c #6BC1BF",
"oX c #5BBCC3",
"OX c #67BFC6",
"+X c #5CC8C7",
"@X c #5ECCCC",
"#X c #4ED6C7",
"$X c #57D1CA",
"%X c #5CD3CC",
"&X c #59CDD1",
"*X c #58DBD5",
"=X c #5DDEDB",
"-X c #63C4C4",
";X c #65C3C9",
":X c #66CBCA",
">X c #62CCCA",
",X c #63D3CC",
"<X c #6AD1CD",
"1X c #76CFD0",
"2X c #67D7D6",
"3X c #52E3D5",
"4X c #61E1D8",
"5X c #57DDE1",
"6X c #58E6E5",
"7X c #64E2E6",
"8X c #909394",
"9X c #B99586",
"0X c #BA9C92",
"qX c #A09DA1",
"wX c #9AA9A7",
"eX c #BBBEBE",
"rX c #311A1C",
"tX c #CCB1A6",
"yX c #D5BCB4",
"uX c #B5BCC0",
"iX c #CDD6D3",
"pX c #D6D6D2",
"aX c #311A1C",
"sX c #311A1C",
"dX c #311A1C",
"fX c #311A1C",
"gX c #311A1C",
"hX c #311A1C",
/* pixels */
"hXhXhXhXhXhXhXhXhXhXfXiXwXa a c y f T Y <.9XgXhXhXhXhXhXhXhXhX",
"hXhXhXhXhXhXhXhXgXwXY.L.].&X@XXXk.u.V. .w.^ 0.gXhXhXhXhXhXhXhX",
"hXhXhXhXhXhXsXeXv  X].[.'.,XE.2.w.m.n.I >.' ^ z.fXhXhXhXhXhXhX",
"hXhXhXhXhXsXF.K.:X*X{.Q.P.U.s 4.b.n.x.I >.' o._ l.gXhXhXhXhXhX",
"hXhXhXhXfXL.*X XQ.Q. Xu % O 1 #.b.5.>.I >.{ @.' g Y.hXhXhXhXhX",
"hXhXhXfXT. X'.:XI.c @ & @ * L c.n.5.u.) ;.| ..Q t ~.!.fXhXhXhX",
"hXhXgXG.].R./.Y., @ = > = o J v.C.T :.~ ;.} $.[ q Y.].Y.gXhXhX",
"hXhXuXK.=X[.F.- ; : : = * 7 f.b.B.P p.~ u.) X.o.] f 2XM pXhXhX",
"hXfXu ;XW._.& ; % ; ; > > q f.b.B.I d.( u.~ +.+.+.r R..XJ.hXhX",
"hXqX^.`.!.j O - ; ; & : * q g.n.B.P d._ >._ +.[ @.L T.{.L.pXhX",
"fXE.oX;X/.O ; ; ; ; ; : w X.c.V.5.I d.( >.' +.[ &.X.V >X).wXhX",
"sXL.|._.y $ ; ; ; ; ; % 5 =.j.Z.5.W u.I >.{ O.[ *.o.h _.OXy gX",
"sXL./.!., ; ; ; ; ; > % w *.c.Z.e.I u.I >.} +...q.@.X P.OXy fX",
"T.].`.G.% ; ; ; ; ; ; > 4 *.u.{ G F i.W :.~ ..[ %...1 P._.).qX",
"x 7X2XL.+ ; ; ; ; ; ; % 6 &.Q f.s.] G F X.I q.' $.| X |.2X*Xm ",
"c ;XW.c + ; > ; ; ; ; = 6 @.! e.X.M.i.q./ E J F X. .X F.W.$Xn ",
"i -XT.a @ > > ; ; ; ; , 4 -.;.D F 3.4.h.r.a.i.4.G S < Y.E.<Xl ",
"p =X-XL.+ = % ; ; ; ; > 5 -.v.e.L 2 0 U R a.4.s.f.w.H ~.OX*Xl ",
"p &X XB O & & > ; ; ; - w -.j.A.5.P [ 9 9 q H 4.3.h.T T.].*Xl ",
"x -XQ.n + & & ; ; ; ; ; 5 -.c.C.e.W u.J r.K F 9 9 T r G.(.@Xz ",
"x +X[.c + = = = ; ; ; ; 5 *.v.A.t.J u.P u.) +.W ! D < I./.#Xn ",
"p 7X2XL.+ % : > ; ; ; ; 5 #.g.A.8.H y.I u.` &.' *.1.X '.<X*Xl ",
"x -XQ.m + : ; ; ; ; ; > 5 *.c.A.g f x.I u.` %.^ +...< P.E.$Xz ",
"x -X(.v + - ; ; ; ; ; ; 5 *.c.Z.d A t.I ,.} @.' @.X.. F.Q.:Xl ",
"b =X:XL.+ ; ; ; ; ; ; ; 6 #.c.D.<.h p.W d.{ @.] +.%.  `.@X*Xl ",
"M @X}.N @ % ; ; ; ; ; ; 6 #.v.Z.3.7 u.W u._ #.X.*.X.  U.`.%Xn ",
"b ;X/.v @ ; ; ; ; ; & - 6 #.c.A.7.e d.) >.) @.[ +.o.< F.W.:Xl ",
"x ;X[.m @ ; ; ; ; ; & > 5 #.c.A.7.e u.^ >.) +.] +...< R./.%Xl ",
"p 6X,XL.@ & - ; ; ; ; : 4 =.c.Z.7.w p._ ;.] @.' +.$.. {.,X3Xk ",
"x OX(.j + % > ; ; ; ; > 6 =.c.D.2.h i.) d.{ @.' @.q.. P./.@Xz ",
"p -XW.v @ & % > ; ; & > 4 #.j.D.d H.t.I d.' @.[ @.q.  F.Q.@Xl ",
"x =X+XF.@ ; & ; ; ; & : 4 =.j.B.2.d i.I u._ @.| %.o.  {.>X*Xl ",
"M &X|.N # ; ; ; ; ; ; : 5 #.g.A.5.L y.W :.~ @.' @. .X I. X%Xn ",
"N ;X/.v # ; ; ; ; ; ; > 5 -.g.A.e.E u.W :.T @._ $.W 3 Y.U.<Xl ",
"p @X[.c @ - ; ; ; ; ; - 4 =.v.A.e.P u.W y.) [ P G &._ d Q.%Xn ",
"x *X1XL.O ; > ; ; ; ; - 6 -.g.A.x.I y.G ' P E x.s.t.4.r 1X4Xs ",
"x >XW.j # ; - ; ; ; ; - w @.c.A.X.F E q.$.s.s.5.4.7.L g /.>Xn ",
"b OX(.j # ; ; ; ; ; ; ; 5 *.o.P / p.t.r.r.a.1.T 0 9 < F.Q.>Xs ",
"x 5X>XL.O ; ; ; ; ; ; - 4 &.Q f.a.8.4.3.L H 9 8 E E X '.+X5Xl ",
"u &X`.N O ; ; ; ; ; ; % 4 @.^ %. .R 9 0 S S $.' %.$.X I.`.%Xl ",
"x -XQ.j + - % ; ; ; ; - 5 -.d.D 8 9 E D p.] $.[ +.X.X F.(.-Xl ",
"B  XY.a # $ % % % & % % 5 O.c.N.4.F u.! y./ +.+.+.X.X B R.].V ",
"iXA C Z Z Z Z Z Z Z Z A f =.c.A.t.E d.W y.) &.X.$.1.9.C A 8XsX",
"hXhXhXhXhXhXhXhXhXhXhXhXtX@.c.V.e.W u.~ :.^ O.! Y yXgXhXhXgXhX",
"hXhXhXhXhXhXhXhXhXhXhXhXtX=.c.C.e.E u.~ >.U T z.dXhXhXhXhXhXhX",
"hXhXhXhXhXhXhXhXhXhXhXhXrX*.j.Z.r.P u.E t.3.0XfXhXhXhXhXhXhXhX",
"hXhXhXhXhXhXhXhXhXhXhXhXrX*.c.S.5.P p.` 2.aXhXhXhXhXhXhXhXhXhX",
"hXhXhXhXhXhXhXhXhXhXhXhXrX@.c.A.5.I 1.yXgXhXhXhXhXhXhXhXhXhXhX",
"hXhXhXhXhXhXhXhXhXhXhXhXyXr.,.n.1.9XaXgXhXhXhXhXhXhXhXhXhXhXhX",
"hXhXhXhXhXhXhXhXhXhXhXhXfX0X6.9.l.fXhXhXhXhXhXhXhXhXhXhXhXhXhX"
};
