/* XPM */
static char *_5302d1324c6431db37e933afc3bedd2s6D2P73r7QrZZrfn[] = {
/* columns rows colors chars-per-pixel */
"50 50 60 1 ",
"  c #311A1C",
". c black",
"X c #311A1C",
"o c #311A1C",
"O c #0E0B04",
"+ c #0F0C05",
"@ c #171307",
"# c #171308",
"$ c #191508",
"% c #1A1508",
"& c #1A1509",
"* c #1B1509",
"= c #1A1609",
"- c #332910",
"; c #342B11",
": c #342C11",
"> c #3A3114",
", c #3E3414",
"< c #413516",
"1 c #483B18",
"2 c #4A3D18",
"3 c #52441B",
"4 c #54451C",
"5 c #5B4B1E",
"6 c #615021",
"7 c #625121",
"8 c #655423",
"9 c #675523",
"0 c #685522",
"q c #685623",
"w c #6B5925",
"e c #746027",
"r c #786328",
"t c #816B2B",
"y c #826B2B",
"u c #866F2E",
"i c #8F762F",
"p c #A38636",
"a c #A38736",
"s c #A28738",
"d c #A38738",
"f c #A88B38",
"g c #AA8D3A",
"h c #B5963C",
"j c #B4963F",
"k c #B9993E",
"l c #B99A40",
"z c #BF9E41",
"x c #C09F42",
"c c #C2A041",
"v c #C0A042",
"b c #C5A342",
"n c #C5A343",
"m c #C7A443",
"M c #C9A643",
"N c #CAA743",
"B c #C9A744",
"V c #CBA844",
"C c #CDA944",
"Z c #CFAB45",
/* pixels */
"                                                  ",
"                                                  ",
"                                                  ",
"                                                  ",
"                                                  ",
"                                                  ",
"                                                  ",
"                                                  ",
"                                                  ",
"                                                  ",
"                                                  ",
"                                                  ",
"                                                  ",
"                                                  ",
"                                                  ",
"                                                  ",
"                                                  ",
"                                                  ",
"                                                  ",
"                                                  ",
"              ......                              ",
"              *****#                              ",
"            ..vZZZBl>.                            ",
"           .2eNp5kZnu6......  .  ...              ",
"           .qZZy.fZZvs......  .  ...              ",
"           .qZO. .;Zxs.9jjjj#........             ",
"           .qZ61 3rZmg.wzzzz955555555,            ",
"           .qZZy.fZZZj.eZZZZZZZZZZZZZq.           ",
"           .qZZnjNZZZj.+*************@            ",
"           .4iVZZZZZpy...............             ",
"            ..vZZZZZ<.                            ",
"              -;:;;;                              ",
"              ......                              ",
"                                                  ",
"                                                  ",
"                                                  ",
"                                                  ",
"                                                  ",
"                                                  ",
"                                                  ",
"                                                  ",
"                                                  ",
"                                                  ",
"                                                  ",
"                                                  ",
"                                                  ",
"                                                  ",
"                                                  ",
"                                                  ",
"                                                  "
};
