/* XPM */
static char *result[] = {
/* columns rows colors chars-per-pixel */
"18 29 199 2 ",
"   c black",
".  c #010101",
"X  c #020101",
"o  c #030101",
"O  c #020202",
"+  c #030202",
"@  c gray1",
"#  c #040202",
"$  c #040302",
"%  c #040303",
"&  c #060404",
"*  c #070505",
"=  c #090909",
"-  c #0B0A0A",
";  c #0E0E0E",
":  c #100303",
">  c #100404",
",  c #100606",
"<  c #100706",
"1  c #110806",
"2  c #170805",
"3  c #180805",
"4  c #190906",
"5  c gray10",
"6  c gray11",
"7  c #1D1C1C",
"8  c #200601",
"9  c #200B07",
"0  c #230C07",
"q  c #280802",
"w  c #2D140F",
"e  c #3B140B",
"r  c #3C140C",
"t  c #2D1010",
"y  c #331110",
"u  c #331210",
"i  c #381313",
"p  c #3A1E19",
"a  c #3C1F19",
"s  c #30261C",
"d  c #3F2F1F",
"f  c #021D27",
"g  c #252323",
"h  c gray14",
"j  c #252424",
"k  c gray15",
"l  c #292726",
"z  c #2D2D2D",
"x  c #362B21",
"c  c #372C21",
"v  c #36322E",
"b  c #323730",
"n  c #373737",
"m  c #3F3F3F",
"M  c #4D0D01",
"N  c #591A02",
"B  c #591E02",
"V  c #541411",
"C  c #5D1714",
"Z  c #791502",
"A  c #44241D",
"S  c #51241B",
"D  c #5C281E",
"F  c #622114",
"G  c #6E201C",
"H  c #493326",
"J  c #483727",
"K  c #48392B",
"L  c #493632",
"P  c #4A3733",
"I  c #6F3124",
"U  c #64342A",
"Y  c #763633",
"T  c #743F39",
"R  c #624E3B",
"E  c #624F3B",
"W  c #69543E",
"Q  c #71573E",
"!  c #7B5A3A",
"~  c #025C7C",
"^  c #4E4846",
"/  c #584642",
"(  c #564A40",
")  c gray32",
"_  c #6C5642",
"`  c #801919",
"'  c #8D2A03",
"]  c #8D3003",
"[  c #94311C",
"{  c #98321D",
"}  c #99331E",
"|  c #852A2A",
" . c #8D3E2E",
".. c #8E3F2E",
"X. c #9B3520",
"o. c #9B3131",
"O. c #A23C27",
"+. c #C72626",
"@. c #F13734",
"#. c #FE3131",
"$. c #864639",
"%. c #8F4B3D",
"&. c #934D3E",
"*. c #A6402B",
"=. c #A7432F",
"-. c #A8432E",
";. c #B14337",
":. c #BA4E3B",
">. c #BE4C3A",
",. c #BF4A3D",
"<. c #AB5139",
"1. c #B5503B",
"2. c #B6503B",
"3. c #B5513C",
"4. c #B6563F",
"5. c #DA4037",
"6. c #B14745",
"7. c #A15441",
"8. c #A65646",
"9. c #B65B42",
"0. c #B75E43",
"q. c #B45A49",
"w. c #BF5D4A",
"e. c #846648",
"r. c #866749",
"t. c #8D6E4F",
"y. c #966F47",
"u. c #9F6845",
"i. c #846C55",
"p. c #8C7054",
"a. c #937658",
"s. c #9A7A58",
"d. c #AC6641",
"f. c #B36148",
"g. c #B46349",
"h. c #BA634D",
"j. c #B8694A",
"k. c #B96C4C",
"l. c #B36F51",
"z. c #A17D58",
"x. c #A47F59",
"c. c #9C6C62",
"v. c #CE4141",
"b. c #D44544",
"n. c #E84944",
"m. c #FE4F4F",
"M. c #E2514C",
"N. c #C86551",
"B. c #CC6956",
"V. c #CF6C58",
"C. c #CF6D59",
"Z. c #D46E59",
"A. c #D2705A",
"S. c #D1745B",
"D. c #C77E70",
"F. c #BC8B59",
"G. c #A08060",
"H. c #AC8967",
"J. c #B48B62",
"K. c #B39170",
"L. c #B99573",
"P. c #C28F5C",
"I. c #C0905E",
"U. c #C78366",
"Y. c #D98B6D",
"T. c #C59462",
"R. c #C99967",
"E. c #D3A574",
"W. c #D3A577",
"Q. c #DAA977",
"!. c #D7A978",
"~. c #D5AB7F",
"^. c #DEAF7E",
"/. c #E0AD7A",
"(. c #01718D",
"). c #007997",
"_. c #0285B0",
"`. c #018ABB",
"'. c #008BBD",
"]. c #04A0D1",
"[. c #03BBE9",
"{. c #01C9FB",
"}. c #02C9FC",
"|. c gray69",
" X c #DB9687",
".X c #E8B785",
"XX c #EEBD8B",
"oX c #EBBC8D",
"OX c #E3A699",
"+X c #F1C090",
"@X c #F0C190",
"#X c #F2C290",
"$X c #F2C393",
"%X c #F5C493",
"&X c #FDCA97",
"*X c #FECB98",
"=X c #F5F2EE",
"-X c #FEFEFE",
";X c #311A1C",
/* pixels */
";X;X;X;X;X;X;X;X# O O O O ;X;X;X;X;X",
";X;X;X;X;X;X;X;Xp A A L ) g ;X;X;X;X",
";X;X;X          %.Z.Z.OX-Xn @ ;X;X;X",
";X;X. U &.&.c.|./ a =.q.D.6.o.. ;X;X",
";X;X, $.A.V. X=X^ 1 X.*.2.M.b.> : ;X",
"  i m.S.J.3.g.J.f.2.2.2.2.2.>.#.`   ",
"o t | 7.l.-.<.l.h.w.2.9.k.4.:.5.G   ",
";X;X  I 2.} O.2.N.C.2.j.P.0.2.2.D   ",
". u v.,.1.4 C @.Y P B.Y.@XH w 2.D   ",
"  y n.;. .9 V +.T ( 8.U.*Xc < ..S % ",
"  0 { e   [ F   H.oX  E *Xc       ;X",
";X3 r 2   d.u.e.~.oX  E *Xc O ;X;X;X",
";X;X      F.R./.#XoX  R &Xx % ;X;X;X",
";X;X;X;X;X$ d I.E.^.%Xp.X ;X;X;X;X;X",
";X;X;X;X;X; s ! r.t.G.W   ;X;X;X;X;X",
";X;X;X    k 5         . ;X;X;X;X;X;X",
";X;X;X    L.i.6 6 7 z 7 . ;X;X;X;X;X",
";X;X;X    $XK.v l j m h   ;X;X;X;X;X",
";X;X;X    Q..X*XK @ m h   ;X;X;X;X;X",
";X;X;X    Q s.XXa._ m h   ;X;X;X;X;X",
";X;X;X      J /.#X+Xm h   ;X;X;X;X;X",
";X;X;X      d T.!.W.= - ;X;X;X;X;X;X",
";X;X;X    f b y.x.z.% * ;X;X;X;X;X;X",
";X;X;X    '.~     . ;X;X;X;X;X;X;X;X",
";X;X;X    '._.).).(.& ;X;X;X;X;X;X;X",
";X;X;X    `.].{.}.[.  . ;X;X;X;X;X;X",
";X;X;X;X;X+ q Z ' ]   . ;X;X;X;X;X;X",
";X;X;X;X;Xo 8 M N B   ;X;X;X;X;X;X;X",
";X;X;X;X;X;X;X    . ;X;X;X;X;X;X;X;X"
};
