/* XPM */
static char *result[] = {
/* columns rows colors chars-per-pixel */
"24 29 245 2 ",
"   c black",
".  c #010000",
"X  c #010101",
"o  c #030101",
"O  c #020201",
"+  c #020202",
"@  c gray1",
"#  c #040303",
"$  c #050403",
"%  c #060403",
"&  c #0E0500",
"*  c #0D0503",
"=  c #060D0E",
"-  c #160700",
";  c #1D0A06",
":  c #001015",
">  c #011217",
",  c #001317",
"<  c #091415",
"1  c #111111",
"2  c #131212",
"3  c #131313",
"4  c gray12",
"5  c #230600",
"6  c #250801",
"7  c #250901",
"8  c #2C0F00",
"9  c #230C08",
"0  c #2C0E08",
"q  c #2C0F09",
"w  c #28130E",
"e  c #2D140F",
"r  c #33120B",
"t  c #34110A",
"y  c #3A130C",
"u  c #2F1510",
"i  c #201912",
"p  c #231B13",
"a  c #241C14",
"s  c #2A1813",
"d  c #341610",
"f  c #341711",
"g  c #311813",
"h  c #351913",
"j  c #361A14",
"k  c #3B1D17",
"l  c #381919",
"z  c #2D2219",
"x  c #2F251C",
"c  c #3D201A",
"v  c #3F201A",
"b  c #32281E",
"n  c #362A1E",
"m  c #001920",
"M  c #011C23",
"N  c #001D24",
"B  c #1F2223",
"V  c gray13",
"C  c #202527",
"Z  c #292828",
"A  c gray16",
"S  c #2C2C2C",
"D  c gray18",
"F  c #2F2E2E",
"G  c #392D21",
"H  c #382D22",
"J  c #3D3125",
"K  c #3D362E",
"L  c #313131",
"P  c #373737",
"I  c #3E3934",
"U  c #3F3934",
"Y  c gray22",
"T  c #3A3A3A",
"R  c gray23",
"E  c #3C3C3C",
"W  c gray24",
"Q  c #3E3E3E",
"!  c #3F3F3F",
"~  c #41160D",
"^  c #49190F",
"/  c #4F1A0F",
"(  c #4E1A10",
")  c #451E1E",
"_  c #491F1F",
"`  c #511B10",
"'  c #531C11",
"]  c #7A1400",
"[  c #771717",
"{  c #791A18",
"}  c #482018",
"|  c #4D231A",
" . c #5C291E",
".. c #622013",
"X. c #502A22",
"o. c #403830",
"O. c #463E37",
"+. c #692E22",
"@. c #622B2B",
"#. c #6A3025",
"$. c #7E3C2F",
"%. c #494039",
"&. c #7A4033",
"*. c #65513D",
"=. c #66523D",
"-. c #31464B",
";. c #31464D",
":. c #2B515C",
">. c #335B70",
",. c #386274",
"<. c #396374",
"1. c #801C01",
"2. c #811E01",
"3. c #983200",
"4. c #842C19",
"5. c #8E2F1B",
"6. c #98321D",
"7. c #823A2B",
"8. c #983521",
"9. c #9A3925",
"0. c #9F3924",
"q. c #9D3B27",
"w. c #9F3D28",
"e. c #863A3A",
"r. c #A63423",
"t. c #AA3725",
"y. c #A13B27",
"u. c #A03C28",
"i. c #A23D28",
"p. c #A33D28",
"a. c #DC2B2B",
"s. c #EA322F",
"d. c #824437",
"f. c #934130",
"g. c #974331",
"h. c #944434",
"j. c #9E4633",
"k. c #A6402B",
"l. c #A8422D",
"z. c #A9432E",
"x. c #A24633",
"c. c #AE4833",
"v. c #AF4934",
"b. c #B04A35",
"n. c #B44E39",
"m. c #B0493C",
"M. c #B6503B",
"N. c #B6503E",
"B. c #B6533F",
"V. c #B7533F",
"C. c #B8533F",
"Z. c #A64A40",
"A. c #A35646",
"S. c #A65645",
"D. c #B95541",
"F. c #BB5540",
"G. c #BA5642",
"H. c #BC5047",
"J. c #BB5844",
"K. c #BC5946",
"L. c #BA5F46",
"P. c #BE5948",
"I. c #BE5F4B",
"U. c #84694F",
"Y. c #866B50",
"T. c #9A7C5C",
"R. c #9B7D5D",
"E. c #BD624C",
"W. c #C24F4F",
"Q. c #C35546",
"!. c #C0554C",
"~. c #C7554D",
"^. c #C35D49",
"/. c #D05151",
"(. c #D15B5A",
"). c #FE4F4F",
"_. c #ED504D",
"`. c #F3504E",
"'. c #ED5C53",
"]. c #C3604C",
"[. c #C3604D",
"{. c #C4614D",
"}. c #C5634F",
"|. c #CB6550",
" X c #C86452",
".X c #CA6652",
"XX c #CE6553",
"oX c #CA6955",
"OX c #CC6955",
"+X c #D56055",
"@X c #D3625A",
"#X c #D36F5A",
"$X c #D66C59",
"%X c #D46E59",
"&X c #D26F5C",
"*X c #D96A58",
"=X c #DA6E5C",
"-X c #DC6E5E",
";X c #DE6E5E",
":X c #C17053",
">X c #D9725E",
",X c #E56255",
"<X c #E56A5F",
"1X c #F0615E",
"2X c #F4615E",
"3X c #D67360",
"4X c #EB6461",
"5X c #F56D69",
"6X c #F86D6A",
"7X c #F96D6A",
"8X c #FE6D6D",
"9X c #A48362",
"0X c #C9805D",
"qX c #D08E67",
"wX c #F28C77",
"eX c #E0AD7A",
"rX c #1E758F",
"tX c #1D7994",
"yX c #1B7C99",
"uX c #407982",
"iX c #0F93BA",
"pX c #0E95BD",
"aX c #43828A",
"sX c #448289",
"dX c #408A93",
"fX c #008FC2",
"gX c #0495C7",
"hX c #0596C8",
"jX c #03A9DB",
"kX c #04A8DA",
"lX c #00ADE0",
"zX c #06B8E9",
"xX c #04BCEE",
"cX c #06BDEE",
"vX c #08B8E9",
"bX c #05C3F5",
"nX c #00CBFE",
"mX c #E4B381",
"MX c #E6B481",
"NX c #EBBA88",
"BX c #ECBB89",
"VX c #EEBB88",
"CX c #F5C492",
"ZX c #FECB98",
"AX c #311A1C",
/* pixels */
"AXAXAXAXAXAXAXAXAX        + AX          . AXAXAX",
"AXAXAXAXAXAXAXAXs c j f f u AX9 0 k v _ l AXAXAX",
"AXAXAXAXAX#     X.%XK.M.M.7.  ' 6.|.=X8Xe.  AXAX",
"AXAXAXAX#  .#.&.Z.'.~.H.} | +.h.F.<X@X@.) AXAXAX",
"AXAXAX    f.V.%X,X)./.W.X e M.{.%X6X(.    AXAXAX",
"AXAXO [ a.r.y.%X$X*XP.N.j.m.`.2X7X-X X4.^ O AXAX",
"AXAX  { s.t.i.>X#XOXE.L.D.Q._.1X5X;XXX6.`   AXAX",
"AXAX  / 6.b.G.wX3XM.qXeX%X.XM.{.%X6X4X6.`   AXAX",
"AXAXX t ( x.C.&X}.M.:X0X].J.l.B.].+X!.( r X AXAX",
"AXAXAX    f.M.M.M.M.M.M.M.c.6.z.M.M.g.    AXAXAX",
"AXAXAXAXAXw d 0.l.M.k.0.0.p.v.k.0.[.S.    AXAXAX",
"AXAXAXAXAX# * 5.q.n.9.5.8.u.n.w.5.I.A.+ o AXAXAX",
"AXAXAXAXAX#     y 6.q   oX^.6.~       AXAXAXAXAX",
"AXAXAXAXAX2 3 3 g ..;   d.$...h 3 3 1 AXAXAXAXAX",
"AXAXAX    S P P V             4 P P F     AXAXAX",
"AXAX@ =.9XU D P L A A A A A A L P D I 9X*.@ AXAX",
"AXAX  U.ZX%.Z P T ! ! ! ! ! ! T P A O.ZXY.  AXAX",
"AXAX  U.ZX%.Z P P P W ! ! W P P P A O.ZXY.  AXAX",
"AXAXH T.CXo.B :.;.Y E Q Q E Y -.:.C K CXR.H AXAX",
"  b ZXVXeXa : lXyXR R R R R R tXlXm i eXNXZXJ X ",
"  x BXMXeXa : lXpXrXrXrXrXrXrXiXlXm i eXmXBXG X ",
"  z eXeXeXa : lXlXlXlXlXlXlXlXlXlXm i eXeXeXn X ",
"AXAXp p p % > bXvXlXlXlXlXlXlXzXbXM $ p p p AXAX",
"AXAXX X X . , nXcXlXjXkXkXjXlXxXnXN   X X X AXAX",
"AXAXAXAXAX# , nXcXlXhXfXfXgXlXxXnXN   AXAXAXAXAX",
"AXAXAXAXAX# = dXsXuX<.>.>.,.uXaXdX<   AXAXAXAXAX",
"AXAXAXAXAX# & 3.3.3.2.] ] 1.3.3.3.-   AXAXAXAXAX",
"AXAXAXAXAXAXAX8 8 8 7 5 5 6 8 8 8 AXAXAXAXAXAXAX",
"AXAXAXAXAXAXAX                    AXAXAXAXAXAXAX"
};
