/* XPM */
static char *result[] = {
/* columns rows colors chars-per-pixel */
"18 29 203 2 ",
"   c black",
".  c #010101",
"X  c #020202",
"o  c gray1",
"O  c #040303",
"+  c #050403",
"@  c #010607",
"#  c #040404",
"$  c #090403",
"%  c #0D0503",
"&  c #0E0907",
"*  c #0D0A07",
"=  c #0F0A07",
"-  c #030B0F",
";  c #0C0C0C",
":  c #1D0501",
">  c #110A08",
",  c #100B09",
"<  c #110D0A",
"1  c #110E0A",
"2  c #120E0A",
"3  c #130F0C",
"4  c #190C09",
"5  c #1E0D0B",
"6  c #180D0C",
"7  c #1E100D",
"8  c #1F110E",
"9  c #020C10",
"0  c #151515",
"q  c #161616",
"w  c #1A1919",
"e  c gray10",
"r  c #1C1B1B",
"t  c #290700",
"y  c #2E0F01",
"u  c #240B0B",
"i  c #250D08",
"p  c #260E0E",
"a  c #310F01",
"s  c #390900",
"d  c #3B0E0E",
"f  c #23100C",
"g  c #2C140F",
"h  c #35120B",
"j  c #261410",
"k  c #241D16",
"l  c #261E17",
"z  c #371212",
"x  c #3B1414",
"c  c #32281E",
"v  c #202020",
"b  c gray13",
"n  c #252321",
"m  c #252525",
"M  c #272727",
"N  c gray16",
"B  c #3B2E21",
"V  c gray22",
"C  c gray23",
"Z  c #3F3F3F",
"A  c #431612",
"S  c #421D16",
"D  c #5A1313",
"F  c #5A1C1C",
"G  c #7A1400",
"H  c #4E271F",
"J  c #782801",
"K  c #532D24",
"L  c #413428",
"P  c #5D3127",
"I  c #533D28",
"U  c #6F2323",
"Y  c #652E22",
"T  c #692E25",
"R  c #7C3729",
"E  c #5B432B",
"W  c #5E452D",
"Q  c #5D4733",
"!  c #5D4833",
"~  c #624D37",
"^  c #7A4034",
"/  c #665039",
"(  c #695139",
")  c #00455D",
"_  c #2C4546",
"`  c #004C67",
"'  c #6C5641",
"]  c #6D5741",
"[  c #69594A",
"{  c #6E5959",
"}  c #7E654C",
"|  c #6D6766",
" . c #9E1F1F",
".. c #922D00",
"X. c #93311D",
"o. c #94321D",
"O. c #98321D",
"+. c #882828",
"@. c #9F3924",
"#. c #92322A",
"$. c #A03B26",
"%. c #A33D28",
"&. c #BC3D31",
"*. c #B63A39",
"=. c #DF3E36",
"-. c #FB3232",
";. c #FE3131",
":. c #98412F",
">. c #824437",
",. c #954435",
"<. c #9B4534",
"1. c #9F4A3F",
"2. c #A6402B",
"3. c #A4402C",
"4. c #AC4631",
"5. c #AE4934",
"6. c #A54B38",
"7. c #B24C37",
"8. c #BF443A",
"9. c #B24D38",
"0. c #AB5038",
"q. c #B6503B",
"w. c #B5503C",
"e. c #B5523D",
"r. c #C14B3A",
"t. c #C5493A",
"y. c #924E42",
"u. c #B95540",
"i. c #BA5642",
"p. c #BA5743",
"a. c #B45943",
"s. c #B55E45",
"d. c #8C6D4F",
"f. c #9D744B",
"g. c #886D51",
"h. c #8F755D",
"j. c #B96547",
"k. c #B4664A",
"l. c #B56C4D",
"z. c #B9734F",
"x. c #B87A4E",
"c. c #B36757",
"v. c #BE6755",
"b. c #BD7750",
"n. c #BC7156",
"m. c #9C7E62",
"M. c #CA4E41",
"N. c #C35F4B",
"B. c #F54F4D",
"V. c #FE4F4F",
"C. c #C4634E",
"Z. c #CB6955",
"A. c #C86856",
"S. c #CE6B58",
"D. c #DF6656",
"F. c #D46E59",
"G. c #D17559",
"H. c #DD7061",
"J. c #B98C5F",
"K. c #AF8760",
"L. c #B48B62",
"P. c #B2906E",
"I. c #BC9670",
"U. c #C5885D",
"Y. c #C18F5D",
"T. c #C28F5C",
"R. c #C18A69",
"E. c #D4986D",
"W. c #C69E77",
"Q. c #EB9F7B",
"!. c #C8A179",
"~. c #CEA57B",
"^. c #D8A877",
"/. c #DAA876",
"(. c #DAAA79",
"). c #E0AD7A",
"_. c #01678B",
"`. c #107D9F",
"'. c #247D8E",
"]. c #028BAC",
"[. c #2297B6",
"{. c #2A9EB6",
"}. c #008FC2",
"|. c #009ECD",
" X c #01AFDB",
".X c #D29D8F",
"XX c #D0A881",
"oX c #D9A196",
"OX c #E4B381",
"+X c #E8B583",
"@X c #EEBB88",
"#X c #ECBC8E",
"$X c #F0B588",
"%X c #F3C18E",
"&X c #F0C190",
"*X c #F3C391",
"=X c #F6C291",
"-X c #FECB98",
";X c #FCCCCC",
":X c #ECD4D0",
">X c #F5E4E1",
",X c #F9EEEC",
"<X c #311A1C",
/* pixels */
"<X<X            <X<X      <X<X<X<X<X",
"<Xx U { | P P P 7 6 P P P & <X<X<X<X",
"  F V.;X,XF.F.F.j 8 F.F.F.>   <X<X<X",
"<X5 u y.v.u.5.$.:.<.u.oX>Xc.>.  <X<X",
"<Xp z ,.p.q.4.@.7.e.s..X:XH.1.  <X<X",
"  F V.D.S.q.q.q.q.a.L.l.q.B.*.  <X<X",
"  A &.T K b.j.q.N.C.k.0.%.M.8. .d O ",
"  h X.i * Y.z.w.A.Z.w.3.o.9.t.-.D   ",
"<X<X    1 -XQ.F.i.r.;.+.v 6.q.q.S   ",
"<X<X  . 1 -XR.^ n.G.=.#.H Y R q.S   ",
"<X<X<X. 1 -Xg.  W.$Xq.2.O.% g q.S   ",
"<X<X<X. 1 -Xg.  W.=XE.U.x.= $ f 4 <X",
"<X<X<Xo < ~.} l !.&X^.J.f., . . <X<X",
"<X<X<X<X<X  ' -XOX/.T.E   <X<X<X<X<X",
"<X<X<X<X<X<XL ] ~ ! I c q # <X<X<X<X",
"<X<X<X<X<X<X<X        0 M #   <X<X<X",
"<X<X<X<X<X  e C N m m h.#X3   <X<X<X",
"<X<X<X<X<X  r Z b n [ P.%X3   <X<X<X",
"<X<X<X<X<X  r Z ; k -X@X).2   <X<X<X",
"<X<X<X<X<X  r Z m.I.+Xd.B +   <X<X<X",
"<X<X<X<X<X  w V XX*X(./       <X<X<X",
"<X<X<X<X<X<X<X  K./.T.E       <X<X<X",
"<X<X<X<X<X<X<X  Q ( W _ ) @   <X<X<X",
"<X<X<X<X<X<X<X<X      ` }.9   <X<X<X",
"<X<X<X<X<X<X<X. ]. X X|.}.9   <X<X<X",
"<X<X<X<X<X<X<X  '.{.[.`._.- . <X<X<X",
"<X<X<X<X<X<X<X  J ..G s   <X<X<X<X<X",
"<X<X<X<X<X<X<X<Xy a t : <X<X<X<X<X<X",
"<X<X<X<X<X<X<X<XX X X <X<X<X<X<X<X<X"
};
