/* XPM */
static char *result[] = {
/* columns rows colors chars-per-pixel */
"24 29 253 2 ",
"   c black",
".  c #010101",
"X  c #020101",
"o  c #030101",
"O  c #030301",
"+  c #020202",
"@  c gray1",
"#  c #050303",
"$  c #070302",
"%  c #050404",
"&  c gray2",
"*  c #060404",
"=  c #070505",
"-  c #0A0303",
";  c #0C0503",
":  c #0A0404",
">  c #090705",
",  c gray3",
"<  c #150903",
"1  c #160805",
"2  c #1B0900",
"3  c #1E0B01",
"4  c #1B0D0A",
"5  c #1D0D0A",
"6  c #14110E",
"7  c #1B1A1A",
"8  c #1F1D19",
"9  c #1D1D1D",
"0  c #240C07",
"q  c #260F0B",
"w  c #200D0D",
"e  c #2F1001",
"r  c #23100C",
"t  c #24110D",
"y  c #2F100A",
"u  c #2B130E",
"i  c #32110B",
"p  c #38120B",
"a  c #2C1511",
"s  c #2B1714",
"d  c #2F1515",
"f  c #311A15",
"g  c #321A15",
"h  c #351A17",
"j  c #3B1A1A",
"k  c #372A1E",
"l  c #031B24",
"z  c #041F24",
"x  c #032124",
"c  c #272727",
"v  c #282727",
"b  c #292828",
"n  c #2A2828",
"m  c gray17",
"M  c #2E2A28",
"N  c #2C2B2B",
"B  c #2D2D2D",
"V  c #2F2F2F",
"C  c #362C22",
"Z  c #312B25",
"A  c #392B20",
"S  c #3A2C20",
"D  c #3D3023",
"F  c #3D3125",
"G  c #252F30",
"H  c #252F31",
"J  c #252F32",
"K  c #263134",
"L  c #283133",
"P  c #2D373A",
"I  c gray19",
"U  c #353535",
"Y  c #373737",
"T  c gray22",
"R  c #3C3C3C",
"E  c #3F3F3F",
"W  c #41170F",
"Q  c #45170D",
"!  c #47170E",
"~  c #47180F",
"^  c #4D1A0F",
"/  c #5A1E12",
"(  c #472018",
")  c #4B2119",
"_  c #4F261D",
"`  c #52251C",
"'  c #632113",
"]  c #6B2A1D",
"[  c #7A2D1D",
"{  c #4F2222",
"}  c #4E2921",
"|  c #572D25",
" . c #463627",
".. c #45372A",
"X. c #4A3929",
"o. c #5D3228",
"O. c #642C21",
"+. c #6B3023",
"@. c #6B3025",
"#. c #6D3327",
"$. c #62332A",
"%. c #6C382D",
"&. c #723227",
"*. c #783529",
"=. c #723131",
"-. c #53402E",
";. c #56422F",
":. c #5D4833",
">. c #7E4135",
",. c #023544",
"<. c #243A40",
"1. c #343E41",
"2. c #343F42",
"3. c #01495F",
"4. c #344043",
"5. c #024B61",
"6. c #015D78",
"7. c #5D5146",
"8. c #625345",
"9. c #625749",
"0. c #765B40",
"q. c #625E50",
"w. c #961D1D",
"e. c #983200",
"r. c #852C1A",
"t. c #98321D",
"y. c #9A341F",
"u. c #972420",
"i. c #883422",
"p. c #983420",
"a. c #9B3621",
"s. c #9E3823",
"d. c #9F3924",
"f. c #9B3F2C",
"g. c #8A3C3C",
"h. c #AA3322",
"j. c #A23C27",
"k. c #AB3826",
"l. c #A43E29",
"z. c #E7312D",
"x. c #FE3131",
"c. c #8A483A",
"v. c #974331",
"b. c #A3422E",
"n. c #A4412D",
"m. c #A7412C",
"M. c #A04633",
"N. c #AB4631",
"B. c #AA4733",
"V. c #AC4631",
"C. c #AE4833",
"Z. c #A0483D",
"A. c #AA4B38",
"S. c #B04A35",
"D. c #B14B36",
"F. c #B34D38",
"G. c #B24E39",
"H. c #B44E39",
"J. c #B54F3A",
"K. c #B6503B",
"L. c #B3513E",
"P. c #B5503C",
"I. c #B5513C",
"U. c #B4513D",
"Y. c #964141",
"T. c #AB4E41",
"R. c #A85747",
"E. c #B65340",
"W. c #B75542",
"Q. c #BD5243",
"!. c #BB5442",
"~. c #B95643",
"^. c #BC5641",
"/. c #B95044",
"(. c #B95045",
"). c #BD5A47",
"_. c #BF5A52",
"`. c #856748",
"'. c #9E7A56",
"]. c #C24F4F",
"[. c #D54F48",
"{. c #C05445",
"}. c #C15B46",
"|. c #C3574C",
" X c #C4574C",
".X c #CF554A",
"XX c #C55F4B",
"oX c #D4554D",
"OX c #DD544D",
"+X c #D15151",
"@X c #FE4F4F",
"#X c #EA5E54",
"$X c #F65050",
"%X c #FB5353",
"&X c #CC6651",
"*X c #CA6854",
"=X c #CE6D59",
"-X c #CF6D59",
";X c #DC6857",
":X c #D46E59",
">X c #DC6E5D",
",X c #DD6E5E",
"<X c #CB7059",
"1X c #D5785F",
"2X c #E66155",
"3X c #E46255",
"4X c #E06E60",
"5X c #E36E61",
"6X c #E66D61",
"7X c #E96E64",
"8X c #ED6D65",
"9X c #F36D68",
"0X c #F46D69",
"qX c #FE6D6D",
"wX c #AE865F",
"eX c #AA8662",
"rX c #B48D65",
"tX c #B38F6B",
"yX c #BA926B",
"uX c #C88160",
"iX c #CF8D65",
"pX c #C89A6D",
"aX c #D4986D",
"sX c #EB8570",
"dX c #F28C77",
"fX c #E0AD7A",
"gX c #E1AF7C",
"hX c #E1B07E",
"jX c #036A84",
"kX c #046A84",
"lX c #047494",
"zX c #017BA0",
"xX c #007FA4",
"cX c #0189B1",
"vX c #018BB3",
"bX c #05A3BF",
"nX c #008FC2",
"mX c #059DCA",
"MX c #009ACD",
"NX c #00ADC2",
"BX c #03A6CB",
"VX c #00ADCD",
"CX c #08B1DF",
"ZX c #00ADE0",
"AX c #06C1F2",
"SX c #05C3F5",
"DX c #05C6F7",
"FX c #07C7F8",
"GX c #02CAFC",
"HX c #00CBFE",
"JX c #F0BD8A",
"KX c #FECB98",
"LX c #311A1C",
/* pixels */
"LXLXLXLXLXLXLX=           LXLX          LXLXLXLX",
"LXLXLXLXLXLXLXs f a u u u LXLX0 q f h j d LXLXLX",
"LXLXLXLX      %.:X).K.K.K.X ; t.n.:X5XqX=.  LXLX",
"LXLXLX4 ) _ | Z.2X X(.&.O.( ` D.!.6X_.g.{   LXLX",
"LXLX  r K.}.:X#X@X+X].w   A.E.:X,XqXY.  LXLXLXLX",
"O : w.u.l.J.:X;X3X|./.*.+.[.OX8X7X5XT./ i . LXLX",
". - x.z.t.C.:X:X:X).K.K.K.$X%XqX9X:X^.t.Q   LXLX",
". $ h.k.S.XXsX=X~.uXaX<X*XQ.{.>X4X0X.Xt.Q   LXLX",
". $ t.d.K.&XdX-XK.iXfX1X:XL.E.:X,XqXoXt.Q   LXLX",
"LXLX. t K.P.U.P.K.I.U.U.U.y.a.U.U.U.@.. LXLXLXLX",
"LXLX  5 v.M.D.H.K.F.D.D.D.s.d.D.G.W.#.  LXLXLXLX",
"LXLX      p t.m.K.j.t.t.t.J.F.t.n.:X>.  LXLXLXLX",
"LXLX .k   0 ' i.V.[ ' f.B.N.b.' ] c.o.% LXLXLXLX",
". > fXwX      ^ t.y   R.:Xp.r.      * LXLXLXLXLX",
". > fXrX9 9 9 g ! 1   } $.~ W 9 Z 0.;.@ @ @ LXLX",
". > fXyXY Y Y 7             & Y 7.fX`.      LXLX",
"LXLXS C N I Y V c m B B B c c N M S :.'.eXtXF # ",
"LXLX  , c B Y Y Y R E E E Y U c 9   -.fXJXKX..  ",
"LXLXLXLXc v b I Y Y T T T n L mXlX  -.fXgXhXD   ",
"LXLXLXLXG H J P 1.1.1.2.4.K <.ZXxX  X.pXpXpXA . ",
"LXLX  x NXVXZXZXZXZXZXSXHXHXDXZXxX          LXLX",
"LXLX  z bXBXZXZXZXvXzXCXAXGXDXZXxX  . . . . LXLX",
"LXLX  l nXMXZXZXZX,.  cXZXFXDXZXxX  * LXLXLXLXLX",
"LXLX  l nXMXZXZXZX,.  3.6.kXjX6.5.o LXLXLXLXLXLX",
"LXLX  l nXMXZXZXZX,.            + LXLXLXLXLXLXLX",
"LXLX  6 8.9.q.q.q.8   @ LXLXLXLXLXLXLXLXLXLXLXLX",
"LXLX  3 e.e.e.e.e.e   LXLXLXLXLXLXLXLXLXLXLXLXLX",
"LXLXLXLX2 2 2 2 2 < LXLXLXLXLXLXLXLXLXLXLXLXLXLX",
"LXLXLXLX          LXLXLXLXLXLXLXLXLXLXLXLXLXLXLX"
};
