/* XPM */
static char *result[] = {
/* columns rows colors chars-per-pixel */
"18 29 240 2 ",
"   c black",
".  c #010101",
"X  c #030101",
"o  c #050201",
"O  c #060301",
"+  c #040303",
"@  c #040403",
"#  c #060504",
"$  c #070504",
"%  c #080403",
"&  c #090705",
"*  c #0F0604",
"=  c #090806",
"-  c #0C0C0C",
";  c #130707",
":  c #100907",
">  c #1C0A01",
",  c #1D0A06",
"<  c #180B08",
"1  c #1C0F0D",
"2  c #1F1913",
"3  c #181818",
"4  c #191919",
"5  c #1E1E1E",
"6  c #240601",
"7  c #230D03",
"8  c #2F0F09",
"9  c #2A0E0E",
"0  c #330801",
"q  c #350900",
"w  c #300F01",
"e  c #3C0A00",
"r  c #3F0E0E",
"t  c #22150D",
"y  c #2A130E",
"u  c #361403",
"i  c #391301",
"p  c #31110A",
"a  c #2A1010",
"s  c #281511",
"d  c #231A11",
"f  c #311A15",
"g  c #3B1A14",
"h  c #3E211B",
"j  c #3E251F",
"k  c #33281F",
"l  c #392A1B",
"z  c #002630",
"x  c #012934",
"c  c #202020",
"v  c #212120",
"b  c #262525",
"n  c #2C2220",
"m  c gray17",
"M  c #2C2C2C",
"N  c #2D2D2D",
"B  c gray18",
"V  c #2F2E2E",
"C  c #362B20",
"Z  c #323131",
"A  c #373737",
"S  c #393939",
"D  c #3A3A3A",
"F  c #3E3E3E",
"G  c #3F3E3E",
"H  c #3F3F3F",
"J  c #401401",
"K  c #5A1001",
"L  c #5C1001",
"P  c #401512",
"I  c #481717",
"U  c #4A1818",
"Y  c #4F1A1A",
"T  c #691702",
"R  c #7A1400",
"E  c #7B1818",
"W  c #7E1818",
"Q  c #5E261D",
"!  c #5A281D",
"~  c #692300",
"^  c #762801",
"/  c #7D2A01",
"(  c #562D29",
")  c #403124",
"_  c #473728",
"`  c #503E2C",
"'  c #4F3F30",
"]  c #4A3A3A",
"[  c #65342A",
"{  c #6B392F",
"}  c #713428",
"|  c #55422F",
" . c #5F4B36",
".. c #59503C",
"X. c #784629",
"o. c #654E37",
"O. c #684D32",
"+. c #6B4F33",
"@. c #614E3A",
"#. c #674F39",
"$. c #7E4235",
"%. c #64503C",
"&. c #68533E",
"*. c #6F563D",
"=. c #6D553E",
"-. c #74573B",
";. c #003548",
":. c #004B5E",
">. c #024C5E",
",. c #494747",
"<. c #785E43",
"1. c #7E6448",
"2. c #7E654B",
"3. c #7D654C",
"4. c #932D00",
"5. c #933507",
"6. c #98321D",
"7. c #972D2A",
"8. c #823A2B",
"9. c #863A2A",
"0. c #853C2E",
"q. c #883C2D",
"w. c #9B3520",
"e. c #99302B",
"r. c #873A30",
"t. c #E83A35",
"y. c #F33533",
"u. c #FE3131",
"i. c #974635",
"p. c #964E3F",
"a. c #A7412C",
"s. c #A9432E",
"d. c #AB4530",
"f. c #AF4934",
"g. c #B04A35",
"h. c #BD4D3B",
"j. c #B6503B",
"k. c #B7503B",
"l. c #B5503C",
"z. c #B6503C",
"x. c #B7533F",
"c. c #B5553F",
"v. c #CA4137",
"b. c #C04C3A",
"n. c #C9483F",
"m. c #AD5A40",
"M. c #B45540",
"N. c #BA5241",
"B. c #BA5A47",
"V. c #BD5944",
"C. c #BF5B47",
"Z. c #B65A4A",
"A. c #846648",
"S. c #966F48",
"D. c #98714A",
"F. c #9F774F",
"G. c #8B6F54",
"H. c #8C7054",
"J. c #957554",
"K. c #927558",
"L. c #B86246",
"P. c #B26E46",
"I. c #B7664F",
"U. c #B46E4F",
"Y. c #BB6F4B",
"T. c #A16056",
"R. c #A26458",
"E. c #B37051",
"W. c #BB7550",
"Q. c #CD4E42",
"!. c #D64343",
"~. c #FE4F4F",
"^. c #EB504D",
"/. c #C0604C",
"(. c #CA6753",
"). c #C66B52",
"_. c #CF6A56",
"`. c #CE6B57",
"'. c #D06D59",
"]. c #D46E59",
"[. c #C07E58",
"{. c #E16456",
"}. c #C87F70",
"|. c #AB855F",
" X c #B68656",
".X c #A68667",
"XX c #AF8760",
"oX c #A68768",
"OX c #B28A61",
"+X c #B48B62",
"@X c #B9946F",
"#X c #B89570",
"$X c #C28F5C",
"%X c #CF8C65",
"&X c #C39362",
"*X c #C49463",
"=X c #C89B6C",
"-X c #CF9E6C",
";X c #DD8373",
":X c #D08B7E",
">X c #D19673",
",X c #E39E79",
"<X c #CAA179",
"1X c #CEA47B",
"2X c #D0A172",
"3X c #DAAA79",
"4X c #DCAC7B",
"5X c #E0AD7A",
"6X c #016C87",
"7X c #026E89",
"8X c #01688D",
"9X c #0177A1",
"0X c #0F84A2",
"qX c #0190B3",
"wX c #2A97B0",
"eX c #008FC2",
"rX c #0591C3",
"tX c #0592C4",
"yX c #01A3CB",
"uX c #01A6D0",
"iX c #16ADD1",
"pX c #00CAFD",
"aX c #00CBFE",
"sX c #CE9589",
"dX c #E2B280",
"fX c #E4B280",
"gX c #E5B583",
"hX c #E9B683",
"jX c #EEBE8E",
"kX c #F3BD8F",
"lX c #F5C391",
"zX c #F6C494",
"xX c #F5C796",
"cX c #FDCB98",
"vX c #FECB98",
"bX c #FEC8C8",
"nX c #EFD0CA",
"mX c #F6EDEB",
"MX c #F9F4F3",
"NX c #311A1C",
/* pixels */
"NXNX. . . . . . NXNX. . . NXNXNXNXNX",
"NX9 U ] ,.h h h 1 NXh h h NXNXNXNXNX",
"  Y ~.bXMX].].].f : ].].].s + NXNXNX",
"NXa I T.}.V.l.s.9.8.V.:XnXR.$.  NXNX",
"NXNX; 0.x.j.d.w.f.z.c.sXmX;XZ.  NXNX",
"  Y ~.{.'.j.j.j.j.M.+XE.j.^.!.  NXNX",
"  P v.r.{ Y.L.j.C./.U.m.a.Q.n.E r + ",
"  p 6.8 $ $XW.j.(.`.j.s.6.g.b.u.W   ",
"NXNX* o & lX,X_.B.N.y.7.n i.k.h.Q   ",
"NXNX    = vX>Xp.I.).t.e.j } q.j.!   ",
"NXNXNX  = vXK.  @XkXj.s.6., < j.!   ",
"NXNXNX  = vXK.  @XzX%X[.P.t % g y NX",
"NXNXNX  & jXG.# #XxX4X=X Xd . . NXNX",
"NXNX        @.vXgX3X$XO.  NXNXNXNXNX",
"NXk &. .|   C H.1.<.+.l   X NXNXNXNX",
"  ' vXhX2X                      NXNX",
"  _ fX-X&XOX#.  3 c c b N .X<X<X%.  ",
"@ ) XXF.D.XXo.  v M M Z S oX1XvX2.  ",
"NXNX            B H H H H - 2 vX2.  ",
"NXNXNXNXNXNX.   B F D m 4 =.J.vX2.  ",
"NXNXNXNXNXNXNX  V G A 5   |.dXcX3.  ",
"NXNXNX          8XrXpX6X  S.*X5X*.  ",
"NXNXNXw u ;.;.;.9XtXaXqX:...-.A.`   ",
"NXNX  ~ 5.eXeXeXeXtXaXaXaXz     NXNX",
"NXNXNX> 7 X.X.X.[ ( x 7XaXyX0XL 0 . ",
"NXNXNX. O / / / T K . >.uXiXwXR e   ",
"NXNXNXNXNX        . NXNX  ^ 4.R e   ",
"NXNXNXNXNXNXNXNXNXNXNXNXNXi J q 6 NX",
"NXNXNXNXNXNXNXNXNXNXNXNXNX      NXNX"
};
