/* XPM */
static char *result[] = {
/* columns rows colors chars-per-pixel */
"24 29 254 2 ",
"   c black",
".  c #010101",
"X  c #020101",
"o  c #030101",
"O  c #020202",
"+  c gray1",
"@  c #050303",
"#  c #060202",
"$  c #070403",
"%  c #0F0604",
"&  c #0F0704",
"*  c #0E0807",
"=  c #0B0B0B",
"-  c #1B0900",
";  c #150A0A",
":  c #190B0B",
">  c #1F0D09",
",  c #16110C",
"<  c #161616",
"1  c #191512",
"2  c #191814",
"3  c #181818",
"4  c #1D1D1D",
"5  c #260D00",
"6  c #260D01",
"7  c #240C07",
"8  c #2E0F09",
"9  c #3D0D0D",
"0  c #28120D",
"q  c #2B130E",
"w  c #2A130F",
"e  c #2B140F",
"r  c #2E140F",
"t  c #33100B",
"y  c #3C140C",
"u  c #3D140C",
"i  c #2E1510",
"p  c #2E1611",
"a  c #201911",
"s  c #221B13",
"d  c #261E17",
"f  c #261F17",
"g  c #2D1813",
"h  c #311711",
"j  c #311A15",
"k  c #341914",
"l  c #351C17",
"z  c #3C1811",
"x  c #381A18",
"c  c #3B1A1A",
"v  c #3F1C1C",
"b  c #012430",
"n  c #032930",
"m  c #022B30",
"M  c #002C39",
"N  c #272727",
"B  c #282827",
"V  c #292828",
"C  c gray17",
"Z  c #2C2B2B",
"A  c #2C2C2C",
"S  c #2D2D2D",
"D  c #2E2E2D",
"F  c #352B23",
"G  c #302B26",
"H  c #3A2C20",
"J  c #3C3329",
"K  c #252F30",
"L  c #252F31",
"P  c #252F32",
"I  c #253134",
"U  c #2E383A",
"Y  c #313030",
"T  c #323131",
"R  c #343333",
"E  c #373636",
"W  c #373737",
"Q  c gray22",
"!  c gray24",
"~  c #3E3E3E",
"^  c #3F3F3F",
"/  c #4C0F0F",
"(  c #47170E",
")  c #571D11",
"_  c #5A1E12",
"`  c #5C1F12",
"'  c #4B2119",
"]  c #4A2219",
"[  c #52251B",
"{  c #53251B",
"}  c #5D2A1F",
"|  c #632113",
" . c #662315",
".. c #682315",
"X. c #732717",
"o. c #512921",
"O. c #572D25",
"+. c #5C2C23",
"@. c #463627",
"#. c #463727",
"$. c #54392B",
"%. c #642C21",
"&. c #6B3023",
"*. c #62332A",
"=. c #743225",
"-. c #7B3327",
";. c #783629",
":. c #644E37",
">. c #654E37",
",. c #69513A",
"<. c #70573E",
"1. c #223F48",
"2. c #343E41",
"3. c #343F41",
"4. c #024254",
"5. c #1F4955",
"6. c #344043",
"7. c #01536B",
"8. c #025D77",
"9. c #015D78",
"0. c #045F7A",
"q. c #625345",
"w. c #645749",
"e. c #765B40",
"r. c #625E50",
"t. c #72604E",
"y. c #961D1D",
"u. c #983200",
"i. c #98321D",
"p. c #99331E",
"a. c #9A341F",
"s. c #992D23",
"d. c #8D3625",
"f. c #88382D",
"g. c #883C2C",
"h. c #9D3722",
"j. c #9A3D2A",
"k. c #8A3C3C",
"l. c #AA3322",
"z. c #A03A25",
"x. c #A43E29",
"c. c #A43F2A",
"v. c #A53F2A",
"b. c #AC3E2B",
"n. c #CB3329",
"m. c #FE3131",
"M. c #8A483A",
"N. c #974331",
"B. c #A6402B",
"V. c #A6422E",
"C. c #AA442F",
"Z. c #AE4232",
"A. c #AB4632",
"S. c #AA4733",
"D. c #AC4631",
"F. c #A74834",
"G. c #AD4935",
"H. c #AF4934",
"J. c #B04233",
"K. c #B04A35",
"L. c #B14B36",
"P. c #B54F3A",
"I. c #B5503B",
"U. c #B6503B",
"Y. c #B5513C",
"T. c #B4513D",
"R. c #B5513D",
"E. c #B5523E",
"W. c #B9543F",
"Q. c #AE4747",
"!. c #A04845",
"~. c #B04D41",
"^. c #B14D41",
"/. c #A05344",
"(. c #B75542",
"). c #B95643",
"_. c #BB5743",
"`. c #B85246",
"'. c #B95247",
"]. c #BF5C48",
"[. c #9E7A56",
"{. c #C15141",
"}. c #C85040",
"|. c #C35449",
" X c #C15C48",
".X c #C05D49",
"XX c #C55F4A",
"oX c #CB5D4D",
"OX c #CE5E4E",
"+X c #DE5049",
"@X c #C15051",
"#X c #FE4F4F",
"$X c #E35C54",
"%X c #F55651",
"&X c #FD5B5B",
"*X c #C1604D",
"=X c #C5634F",
"-X c #C8624F",
";X c #CC6651",
":X c #CA6854",
">X c #D16E5B",
",X c #D46E59",
"<X c #DC6E5D",
"1X c #E66155",
"2X c #E46255",
"3X c #E16456",
"4X c #D77561",
"5X c #E36E61",
"6X c #E66D61",
"7X c #E46E62",
"8X c #E66E62",
"9X c #E96D63",
"0X c #EB6D64",
"qX c #ED6D65",
"wX c #F26D67",
"eX c #F46D69",
"rX c #FE6D6D",
"tX c #A6825F",
"yX c #AB8965",
"uX c #AE8A66",
"iX c #B38F6B",
"pX c #CE926C",
"aX c #C89A6D",
"sX c #D3936B",
"dX c #EB8570",
"fX c #F28C77",
"gX c #D9A577",
"hX c #DFA677",
"jX c #E0AD7A",
"kX c #E0AF7D",
"lX c #E1B07E",
"zX c #046882",
"xX c #016887",
"cX c #016C88",
"vX c #017BA0",
"bX c #0188B0",
"nX c #05A3BF",
"mX c #008FC2",
"MX c #009BC9",
"NX c #059DCA",
"BX c #049ACC",
"VX c #00ADC2",
"CX c #04A7CD",
"ZX c #00ADCF",
"AX c #03ADDF",
"SX c #00ADE0",
"DX c #06B9E9",
"FX c #06C1F2",
"GX c #06C2F3",
"HX c #01C7FA",
"JX c #00CBFE",
"KX c #F3C290",
"LX c #FECB98",
"PX c #311A1C",
/* pixels */
"PXPXPXPXPXPXPXPXPX.           PXPX          PXPX",
"PXPXPXPXPXPXPXPXPXg j w q q 0 PX> 7 e j x c PXPX",
"PXPXPXPXPXo       /.,XE.U.U.g.  u i.W.,XwXrX: X ",
"PXPXPXPXPXh ' o.O.|.1X'.~.%.} ' =.L.OX6X!.k.; . ",
"PXPXPXPX  [ U.=X,X%X#X@XQ.  r U. X,X0XrXv   PXPX",
"PXPX. 9 y.s.x.].,X3X2X`.^.&.f.+X$XqX8X5X-._ & + ",
"PXPX  / m.n.i._.,X,X,XE.U.U.}.#X&XrX7X,XV.i.% X ",
"PXPX  t l.b.K.>XdX*X).pXsX:X-X{.oX<X9XeXZ.i.% X ",
"PXPX  8 i.B.U.4XfX.XU.gXhX,X;XU. X,X0XrXJ.i.% X ",
"PXPXPXPX. { U.Y.T.I.U.T.T.T.G.p.c.T.T.T.i . PXPX",
"PXPXPXPXO ] N.F.L.P.U.L.L.L.D.h.v.L.R.(.p   PXPX",
"PXPXPXPXPXo   ` i.H.U.a.i.i.z.U.C.i.W.,Xl   PXPX",
"PXPXPXPXPXo   y | j.D. ...S.A.D.d.| ;.M.$.@.PXPX",
"PXPXPXPXPXo       X.i.# * ,XXXi.)       [.jX, X ",
"PXPX+ + + #.e.J 4 z ( o $ *.+.( k 4 4 4 tXjX, X ",
"PXPX      >.jXt.W =             < W W W uXjX, X ",
"@ d iXyX[.,.H G Z B N A S S C N S W Y Z F H PXPX",
"  f LXKXjX<.  3 N R W ~ ^ ^ ! W W W D N =   PXPX",
"  s lXkXjX<.  0.NX1.V E Q Q Q W T V B N PXPXPXPX",
". a aXaXaX:.  xXSX5.I 3.6.2.2.2.U P L K PXPXPXPX",
"PXPX          xXSXGXJXJXHXSXSXSXSXSXZXVXm   PXPX",
"PXPX. . . .   xXSXGXJXFXDXvXbXSXSXSXCXnXn   PXPX",
"PXPXPXPXPXo   xXSXGXJXAXMX  M SXSXSXBXmXb   PXPX",
"PXPXPXPXPXPXo 4.9.zXcX8.7.  M SXSXSXBXmXb   PXPX",
"PXPXPXPXPXPXPX.             M SXSXSXBXmXb   PXPX",
"PXPXPXPXPXPXPXPXPXPXPXPXPX  2 r.r.r.w.q.1   PXPX",
"PXPXPXPXPXPXPXPXPXPXPXPXPX  5 u.u.u.u.u.6   PXPX",
"PXPXPXPXPXPXPXPXPXPXPXPXPXPXPX- - - - - PXPXPXPX",
"PXPXPXPXPXPXPXPXPXPXPXPXPXPXPX          PXPXPXPX"
};
