/* XPM */
static char *result[] = {
/* columns rows colors chars-per-pixel */
"24 29 243 2 ",
"   c black",
".  c #010000",
"X  c #010101",
"o  c #020201",
"O  c #030202",
"+  c gray1",
"@  c #040303",
"#  c #050403",
"$  c #050404",
"%  c #060504",
"&  c #070504",
"*  c #0C0403",
"=  c #0E0503",
"-  c #100500",
";  c #110600",
":  c #1B0505",
">  c #180905",
",  c #1C0906",
"<  c #130E09",
"1  c #170C0A",
"2  c #150F0A",
"3  c #170F0B",
"4  c #1A0F0D",
"5  c #19120E",
"6  c #19140F",
"7  c #070F10",
"8  c #001218",
"9  c #001318",
"0  c #01151A",
"q  c #00151B",
"w  c #00161B",
"e  c gray7",
"r  c #131313",
"t  c #1B1711",
"y  c #1B1914",
"u  c #230600",
"i  c #250800",
"p  c #2C0E00",
"a  c #240D09",
"s  c #2C0F09",
"d  c #2D140F",
"f  c #31110B",
"g  c #35110B",
"h  c #211A13",
"j  c #231B13",
"k  c #351711",
"l  c #361A14",
"z  c #3A1A1A",
"x  c #292017",
"c  c #20201F",
"v  c #2B2118",
"b  c #2D2319",
"n  c #2D241B",
"m  c #30261C",
"M  c #31271D",
"N  c #3D201A",
"B  c #33291F",
"V  c #1F2324",
"C  c #212020",
"Z  c gray16",
"A  c #2C2C2C",
"S  c #2D2D2D",
"D  c #2E2E2D",
"F  c #382D22",
"G  c #3D3023",
"H  c #3D362F",
"J  c #313131",
"K  c #373737",
"L  c #3E3834",
"P  c gray22",
"I  c #3A3A3A",
"U  c gray23",
"Y  c #3C3C3C",
"T  c gray24",
"R  c #3E3E3E",
"E  c #3F3F3F",
"W  c #490E0E",
"Q  c #48180E",
"!  c #4A190F",
"~  c #4E1A0F",
"^  c #501A0F",
"/  c #441513",
"(  c #451E1E",
")  c #551D11",
"_  c #7A1400",
"`  c #6F1616",
"'  c #711917",
"]  c #58271D",
"[  c #5D291F",
"{  c #492020",
"}  c #4D3925",
"|  c #45382B",
" . c #453C33",
".. c #423C36",
"X. c #463E37",
"o. c #692E22",
"O. c #612A2A",
"+. c #77392F",
"@. c #7E3829",
"#. c #4F453C",
"$. c #594531",
"%. c #5E4C39",
"&. c #6A4E33",
"*. c #6F5235",
"=. c #66513D",
"-. c #7D5C3B",
";. c #31464C",
":. c #31464D",
">. c #2B515C",
",. c #335B70",
"<. c #396374",
"1. c #454140",
"2. c #494242",
"3. c #7B624A",
"4. c #811D01",
"5. c #983200",
"6. c #842C1A",
"7. c #8E2B1C",
"8. c #84301F",
"9. c #98321D",
"0. c #8F3F2F",
"q. c #863939",
"w. c #A73423",
"e. c #A23D28",
"r. c #DC2B2B",
"t. c #E9322F",
"y. c #FE3131",
"u. c #9E4634",
"i. c #B6503B",
"p. c #B5503C",
"a. c #B6503C",
"s. c #B5503F",
"d. c #A65140",
"f. c #BC5946",
"g. c #BA5F47",
"h. c #BB5048",
"j. c #B25B4B",
"k. c #BD5948",
"l. c #BA5F4C",
"z. c #896A4A",
"x. c #906F4F",
"c. c #866B50",
"v. c #876C51",
"b. c #82775D",
"n. c #8E7559",
"m. c #937658",
"M. c #9C7D5D",
"N. c #A2644C",
"B. c #BE634B",
"V. c #BC624C",
"C. c #996960",
"Z. c #C14F4F",
"A. c #C45142",
"S. c #C6554D",
"D. c #D05151",
"F. c #D05959",
"G. c #ED4941",
"H. c #FE4F4F",
"J. c #F2504E",
"K. c #ED5C53",
"L. c #C8624F",
"P. c #CD6653",
"I. c #CC6955",
"U. c #D36F5A",
"Y. c #D46E59",
"T. c #D96A58",
"R. c #DB6F5F",
"E. c #D6735F",
"W. c #D8735E",
"Q. c #D67260",
"!. c #D47865",
"~. c #F66C65",
"^. c #FC6860",
"/. c #F36968",
"(. c #F56D69",
"). c #FE6D6D",
"_. c #EA7E7A",
"`. c #F7797A",
"'. c #F87A7B",
"]. c #B58556",
"[. c #8E8266",
"{. c #A48362",
"}. c #AE8B68",
"|. c #AE8C69",
" X c #AF8C69",
".X c #BE8E69",
"XX c #B98D70",
"oX c #C28F5C",
"OX c #D88E6C",
"+X c #D19067",
"@X c #F28C77",
"#X c #E59F7E",
"$X c #D5A472",
"%X c #E0AD7A",
"&X c #1E758F",
"*X c #1C7A96",
"=X c #1B7C99",
"-X c #407981",
";X c #0E94BC",
":X c #0E95BD",
">X c #43828A",
",X c #448289",
"<X c #408A93",
"1X c #008FC2",
"2X c #0596C7",
"3X c #0496C8",
"4X c #03A8DA",
"5X c #03A9DB",
"6X c #03A9DC",
"7X c #00ADE0",
"8X c #07B9EA",
"9X c #06BCED",
"0X c #04BDEF",
"qX c #08B8E8",
"wX c #06C3F4",
"eX c #00CBFE",
"rX c #C1978E",
"tX c #DD9090",
"yX c #EB9697",
"uX c #D7B185",
"iX c #CBA199",
"pX c #E6A583",
"aX c #E5B481",
"sX c #E5B482",
"dX c #EBBB89",
"fX c #EBBB8A",
"gX c #EEBB88",
"hX c #EDBC8A",
"jX c #EDBD8E",
"kX c #EAA4A4",
"lX c #F0A2A2",
"zX c #F4C492",
"xX c #FBC997",
"cX c #FCCB98",
"vX c #FDCB98",
"bX c #FECB98",
"nX c #FED29F",
"mX c #FED4A1",
"MX c #FEE9B6",
"NX c #EDE0DE",
"BX c gray88",
"VX c #FDE4E4",
"CX c #311A1C",
/* pixels */
"CXCXCX          X CXX             CXCXCXCXCXCXCX",
"CXCXCXz { 2.1.s a CXd k k l N / W CXCXCXCXCXCXCX",
"CXCX  q.).VXNX9.)   @.i.i.f.Y.G.y.:   CXCXCXCXCX",
"CXCXCX( O.tXlXrXC.o.u.a.h.S.K._.yX+.] + CXCXCXCX",
"CXCXCX    F.'.BXiXi.i.p.Z.D.H.kXBXl.0.    CXCXCX",
"CXCXX Q 6.L.R.`./.J.A.i.s.k.T.Q.!.e.w.r.` X CXCX",
"CXCX  ^ 9.d.j.(.~.^.P.B.g.V.I.U.W.8.7.t.'   CXCX",
"CXCX  ^ 9.> 1 Y.#XMXmXcX%X+Xi.E.@X4 , 9.!   CXCX",
"CXCXX g ~ * 5 pXXXb.uXvXfX.X[ N.OX3 = ~ f X CXCX",
"CXCXCX      y MX[.   XbXbX}.  *.oX2       CXCXCX",
"CXCXCXCXCXO t nXn.   XbXbX}.  *.oX2 . CXCXCXCXCX",
"CXCXCXCXCX@ 6 jXv.&  XxXxX|.& &.].<   CXCXCXCXCX",
"CXCXCXCXCX@     $.%X%X%X%X$XoX}       CXCXCXCXCX",
"CXCXCXCXCXr r r | x.x.x.x.z.-.G r r e CXCXCXCXCX",
"CXCXCX    S K K c             C K K A     CXCXCX",
"CXCX$ =.{.L D K J Z Z Z Z Z Z J K D ..{.%.$ CXCX",
"CXCX  c.bXX.Z K I E E E E E E I K Z #.bX3.  CXCX",
"CXCX  c.bXX.Z K K K T E E T K K K Z #.bX3.  CXCX",
"CXCXF M.zXH V >.;.P Y R R Y P :.>.V  .zXm.F CXCX",
"  B bXgX%Xh 9 7X*XU U U U U U =X7X8 x %XhXbXM X ",
"  m dXaX%Xh 9 7X;X&X&X&X&X&X&X:X7X8 x %XsXdXn X ",
"  b %X%X%Xh 9 7X7X7X7X7X7X7X7X7X7X8 x %X%X%Xv X ",
"CXCXj j j # 0 wXqX7X7X7X7X7X7X8XwX0 % j j j CXCX",
"CXCXo o o . w eX9X7X5X4X4X6X7X0XeXq   o o o CXCX",
"CXCXCXCXCX@ w eX9X7X2X1X1X3X7X0XeXq   CXCXCXCXCX",
"CXCXCXCXCX@ 7 <X,X-X<.,.,.<.-X>X<X7   CXCXCXCXCX",
"CXCXCXCXCX@ ; 5.5.5.4._ _ 4.5.5.5.-   CXCXCXCXCX",
"CXCXCXCXCXCXCXp p p i u u i p p p CXCXCXCXCXCXCX",
"CXCXCXCXCXCXCX                    CXCXCXCXCXCXCX"
};
