/* XPM */
static char *result[] = {
/* columns rows colors chars-per-pixel */
"18 29 228 2 ",
"   c black",
".  c #010101",
"X  c #020101",
"o  c #020202",
"O  c #030202",
"+  c gray1",
"@  c #040101",
"#  c #050302",
"$  c #050403",
"%  c #060403",
"&  c #020405",
"*  c #060504",
"=  c #0D0501",
"-  c #0C0703",
";  c #090707",
":  c #0F0604",
">  c #0C0907",
",  c #0B0B0B",
"<  c #130707",
"1  c #190603",
"2  c #110806",
"3  c #100C08",
"4  c #14100C",
"5  c #15110D",
"6  c #111111",
"7  c #161616",
"8  c #270701",
"9  c #240702",
"0  c #2D0800",
"q  c #200F0B",
"w  c #240C08",
"e  c #300801",
"r  c #370B01",
"t  c #3C0E0E",
"y  c #21110E",
"u  c #37130B",
"i  c #2E1010",
"p  c #2B1612",
"a  c #341711",
"s  c #3B1913",
"d  c #391A13",
"f  c #3B1A14",
"g  c #2B2118",
"h  c #3E211B",
"j  c #3E251F",
"k  c #352A1F",
"l  c #011D28",
"z  c #02222C",
"x  c #0F2731",
"c  c #012934",
"v  c #0F333B",
"b  c #202020",
"n  c gray14",
"m  c #272727",
"M  c #2C2220",
"N  c gray16",
"B  c #2B2A2A",
"V  c #3E3022",
"C  c #3E3225",
"Z  c gray19",
"A  c #313131",
"S  c #343434",
"D  c #373737",
"F  c #421601",
"G  c #581D01",
"H  c #4F1010",
"J  c #481717",
"K  c #491814",
"L  c #4A1818",
"P  c #5C1D1D",
"I  c #611000",
"U  c #641101",
"Y  c #7A1400",
"T  c #7E1900",
"R  c #7B1818",
"E  c #5D2002",
"W  c #742202",
"Q  c #742701",
"!  c #6D3111",
"~  c #793613",
"^  c #78361D",
"/  c #403123",
"(  c #453526",
")  c #463627",
"_  c #4A3724",
"`  c #4F3A26",
"'  c #483728",
"]  c #4E3C2A",
"[  c #4D3E2F",
"{  c #493C3C",
"}  c #7D2A28",
"|  c #6A372D",
" . c #7A372A",
".. c #6E3C30",
"X. c #53412F",
"o. c #55422F",
"O. c #5C4732",
"+. c #70432A",
"@. c #6B4F33",
"#. c #02384B",
"$. c #154F5E",
"%. c #1A5F70",
"&. c #494444",
"*. c #715A44",
"=. c #785C40",
"-. c #7E6246",
";. c #7D644B",
":. c #983200",
">. c #98321D",
",. c #832E29",
"<. c #83392A",
"1. c #8A3E2F",
"2. c #9B3520",
"3. c #813930",
"4. c #8A3F30",
"5. c #A53F2A",
"6. c #AB3636",
"7. c #B83F38",
"8. c #E83A35",
"9. c #F33533",
"0. c #FE3131",
"q. c #90402F",
"w. c #92493C",
"e. c #964E3F",
"r. c #A7412C",
"t. c #A9432E",
"y. c #AC4D39",
"u. c #B24C37",
"i. c #B44E39",
"p. c #B44F3A",
"a. c #B84F3B",
"s. c #BD4D3B",
"d. c #AC543C",
"f. c #B6503B",
"g. c #B6513C",
"h. c #B7533E",
"j. c #B5553F",
"k. c #CA4137",
"l. c #C34E3D",
"z. c #C9483A",
"x. c #924F41",
"c. c #B65C43",
"v. c #BA5844",
"b. c #BD5944",
"n. c #846648",
"m. c #83694E",
"M. c #8C7054",
"N. c #97795B",
"B. c #B86044",
"V. c #B26E46",
"C. c #B4694D",
"Z. c #B46E4F",
"A. c #BB6F4B",
"S. c #BB714D",
"D. c #A5645A",
"F. c #BC6950",
"G. c #A27D58",
"H. c #BD7B55",
"J. c #D44F45",
"K. c #C15C48",
"L. c #FE4F4F",
"P. c #F7504F",
"I. c #C1624B",
"U. c #CD654E",
"Y. c #CE6853",
"T. c #CD6955",
"R. c #CF6A56",
"E. c #CE6B57",
"W. c #DF6656",
"Q. c #D46E59",
"!. c #D76E5C",
"~. c #C87C6D",
"^. c #B68656",
"/. c #A48362",
"(. c #A78767",
"). c #B28A61",
"_. c #B48B62",
"`. c #B28E6A",
"'. c #BA9269",
"]. c #C28F5C",
"[. c #CF8C65",
"{. c #CC8E6D",
"}. c #C39667",
"|. c #CD9D6C",
" X c #C69F77",
".X c #E29875",
"XX c #CCA47C",
"oX c #CEA47C",
"OX c #D9A774",
"+X c #DAA774",
"@X c #DAA977",
"#X c #D0A67B",
"$X c #DAAA78",
"%X c #DCAC7B",
"&X c #E0AD7A",
"*X c #E4B27F",
"=X c #276884",
"-X c #358FA6",
";X c #008FC1",
":X c #008FC2",
">X c #05A6D7",
",X c #05A6D8",
"<X c #2AA1C0",
"1X c #2FACCC",
"2X c #2CB3D5",
"3X c #30B9DB",
"4X c #32BCDF",
"5X c #43B4D1",
"6X c #49B8D1",
"7X c #00CAFD",
"8X c #00CBFE",
"9X c #2CD3FD",
"0X c #2CD4FE",
"qX c #37D6FE",
"wX c #D89C90",
"eX c #EFB285",
"rX c #EEBE8E",
"tX c #F4BE8E",
"yX c #D9ABA1",
"uX c #F1C190",
"iX c #F5C391",
"pX c #F4C492",
"aX c #FECB98",
"sX c #FCCECE",
"dX c #EFD0CA",
"fX c #F6EDEB",
"gX c #F9ECE9",
"hX c #311A1C",
/* pixels */
"hXhX. . . . . . hXhX. . . hXhXhXhXhX",
"hXi L { &.h h h hXhXh h h hXhXhXhXhX",
"  P L.sXgXQ.Q.Q.y p Q.Q.Q.% . hXhXhX",
"hXi J D.~.b.p.t.<.1.b.wXdXx.|   hXhX",
"hXhX< 4.h.f.t.2.u.g.j.yXfX!.w.  hXhX",
"  P L.W.E.f.f.f.f.c._.C.f.P.6.  hXhX",
"  K k.3...A.B.f.K.I.Z.d.r.J.7.R t ; ",
"  u >.w 3 ].S.f.T.Y.f.5.>.i.z.0.H . ",
"hXhX: @ 4 iX.XR.v.l.9.} M y.a.s.s . ",
"hXhX    5 aX{.e.F.U.8.,.j  .q.f.d . ",
"hXhXhX. 5 aXm.  oXeXf.5.>.# a f.d . ",
"hXhXhX. 5 aXm.  oXtX[.H.V.$ 2 f q hX",
"hXhXhXX 5 rX;.* XXpX%X}.^.* . . hXhX",
"hXhXhXhXhX  *.aX*X+X].`   hXhXhXhXhX",
"hXhXhXhX.   C M.-.=.@.k 6 hXhXhXhXhX",
"hXhXhX.               7 m o . hXhXhX",
"hXhX  N. X).O.  /.(.b n m o     hXhX",
"hXhX  `.uXOXn.g #XXXm N B o > g hXhX",
"hXhX  G.$X].|.&X&X'.m Z D + / &X) . ",
"hXhXhX' X._ ] o.o.[ A S D + / &X) . ",
"hXhXhX.           , D D D + V @X( X ",
"hXhXhXhXhXhXhX  1X9X7X>X;X&     hXhX",
"hXhXhXhXhXhXv $.4X0X8X,X:X#.x 0 1 hX",
"hXhXhX.     %.qXqX0X8X,X:X:X=XY 8 . ",
"hXhX. G ! <X3XqXqX2Xc z l +.^ Y 8 . ",
"hXhX. E ~ 6X6X6X5X-X  . . Q W U 9 o ",
"hXhXhX. = :.:.:.T I   hXhXO     hXhX",
"hXhXhXhX- F F F r e hXhXhXhXhXhXhXhX",
"hXhXhXhXhX          hXhXhXhXhXhXhXhX"
};
