/* XPM */
static char *result[] = {
/* columns rows colors chars-per-pixel */
"23 29 160 2 ",
"   c #010101",
".  c #0D0D0C",
"X  c #01090B",
"o  c #1B0A03",
"O  c #1B0C09",
"+  c #16110D",
"@  c #1D150E",
"#  c #151414",
"$  c #1D1D1D",
"%  c #1E1A17",
"&  c #220E0A",
"*  c #2D0B0B",
"=  c #24120F",
"-  c #241410",
";  c #2F1515",
":  c #241D15",
">  c #2B1E1E",
",  c #3A1A17",
"<  c #2C241B",
"1  c #32261B",
"2  c #3C2D1D",
"3  c #01232D",
"4  c #1A2325",
"5  c #242424",
"6  c #2B2B2B",
"7  c #21282A",
"8  c #362A21",
"9  c #3A2E22",
"0  c #3B332A",
"q  c #3E3022",
"w  c #343434",
"e  c #393830",
"r  c #3D3D3D",
"t  c #4B190E",
"y  c #591E01",
"u  c #421E16",
"i  c #551B11",
"p  c #561111",
"a  c #7D1818",
"s  c #45211A",
"d  c #54251C",
"f  c #443527",
"g  c #4A3B2C",
"h  c #473D31",
"j  c #733232",
"k  c #5B432C",
"l  c #4A4435",
"z  c #5F4934",
"x  c #5D4B38",
"c  c #524332",
"v  c #614C39",
"b  c #68503A",
"n  c #785839",
"m  c #014052",
"M  c #3A4042",
"N  c #024C62",
"B  c #01596F",
"V  c #025E7A",
"C  c #5A4E42",
"Z  c #635547",
"A  c #745D46",
"S  c #615E51",
"D  c #7E654A",
"F  c #8B1B1B",
"G  c #8D2F00",
"H  c #983200",
"J  c #98321D",
"K  c #81392A",
"L  c #9C3526",
"P  c #AA3927",
"I  c #B33224",
"U  c #EC2E2E",
"Y  c #FA3635",
"T  c #A0423C",
"R  c #B54F3C",
"E  c #B6503C",
"W  c #964141",
"Q  c #BA5243",
"!  c #B45441",
"~  c #9D744C",
"^  c #836A50",
"/  c #957555",
"(  c #AD6556",
")  c #B27265",
"_  c #B97777",
"`  c #C44F4A",
"'  c #C35E4A",
"]  c #D6534A",
"[  c #CF5C50",
"{  c #D05B50",
"}  c #FE4F4F",
"|  c #EE504E",
" . c #E15152",
".. c #FC5252",
"X. c #C5624F",
"o. c #C06E54",
"O. c #D46E59",
"+. c #DE6E5E",
"@. c #D06A55",
"#. c #C37354",
"$. c #E56255",
"%. c #DE7C69",
"&. c #E96D6C",
"*. c #FE6D6D",
"=. c #B48556",
"-. c #B48659",
";. c #A98A67",
":. c #B4906C",
">. c #AD9F7C",
",. c #B29F7D",
"<. c #B4A27E",
"1. c #C28F5C",
"2. c #CB9D6E",
"3. c #D2946B",
"4. c #C2857C",
"5. c #E6816E",
"6. c #F08A75",
"7. c #CAA076",
"8. c #D7A275",
"9. c #E0AD7A",
"0. c #E0B07E",
"q. c #016A87",
"w. c #1D728B",
"e. c #017EA2",
"r. c #19809E",
"t. c #0085B4",
"y. c #028CB6",
"u. c #018FB9",
"i. c #0090B4",
"p. c #0695B6",
"a. c #00A1B4",
"s. c #0492C4",
"d. c #079BC7",
"f. c #00ADC7",
"g. c #03A3C9",
"h. c #03ADDE",
"j. c #00ADE0",
"k. c #09B3E1",
"l. c #06C3F4",
"z. c #00CBFE",
"x. c #D79487",
"c. c #F28F90",
"v. c #EE9E9E",
"b. c #E7AA81",
"n. c #E5B583",
"m. c #EFBC89",
"M. c #F7BC98",
"N. c #EDA4A4",
"B. c #E9B9B9",
"V. c #F3C18F",
"C. c #EDCA97",
"Z. c #FECB98",
"A. c #F8DFAF",
"S. c #FBE0AF",
"D. c #FEE5B2",
"F. c #FEE9B6",
"G. c #DBD6D5",
"H. c #E3C6C5",
"J. c gray88",
"K. c #311A1C",
/* pixels */
"K.K.          K.K.              K.K.K.K.K.K.K.",
"K.K.; > 6 = o K.K.& & & - - * * K.K.K.K.K.K.K.",
"  , *.N.J.( J   O E E R X.O.Y U     K.K.K.K.K.",
"  ; W _ B.4.) s d E E Q [ $.&.&.u , K.K.K.K.K.",
"K.K.  j *.B.J.! E R Q ` ] ..H.G.E K   K.K.K.K.",
"  O i T *.c.v.] ] R Q Q { $.x.x.P L F p   K.K.",
"  & J ` *.*.*...| R E E [ O.O.O.J I Y a   K.K.",
"  & J R +.+.+.M.M.b.9.3.( ' %.%.' E I i   K.K.",
"  & J E O.O.O.D.D.Z.m.8.#.E 5.6.O.' J i   K.K.",
"K.K.      ,.A.+ < Z.Z.Z.Z   ~ -..       K.K.K.",
"K.K.      <.F.  : Z.Z.Z.v   ~ =.      K.K.K.K.",
"K.K.K.K.  :.Z.  : Z.Z.Z.x   ~ =.    K.K.K.K.K.",
"K.K.K.9 h / ;.f v V.V.V.^ 2 n n . . K.K.K.K.K.",
"K.K.  A Z.g   8.9.9.0.8.2.1.@   5 %   K.K.K.K.",
"      1 A 0 < v b b b b z k % # ^ ^ ^ c   K.K.",
"          6 M               : 6 9.n.Z.^   K.K.",
"  : / ;.>.h # 7 7 7 6 5 $ $ 6 w f b n.7.;.<   ",
"  1 8.C.F.l   r C r r w 6 5 w w   9 9.m.Z.q   ",
"  1 9.n.n.f   $ 5 r r r w.d.d.s.    + + + K.K.",
"  1 2.2.2.0 X 4 4 M M M r.j.j.g.          K.K.",
"K.K.      i.z.z.l.j.j.j.h.h.f.a.    K.K.K.K.K.",
"K.K.      i.z.l.k.e.u.j.h.h.g.p.    K.K.K.K.K.",
"K.K.K.K.  i.z.h.y.  m j.h.h.s.t.    K.K.K.K.K.",
"K.K.K.K.  B q.V N   3 V y.j.s.t.    K.K.K.K.K.",
"K.K.K.K.K.              q.h.s.t.  . K.K.K.K.K.",
"K.K.K.K.K.K.K.K.K.K.    e S Z C     K.K.K.K.K.",
"K.K.K.K.K.K.K.K.K.K.K.  y H H G     K.K.K.K.K.",
"K.K.K.K.K.K.K.K.K.K.K.K.o o o o K.K.K.K.K.K.K.",
"K.K.K.K.K.K.K.K.K.K.K.K.        K.K.K.K.K.K.K."
};
