/* XPM */
static char *result[] = {
/* columns rows colors chars-per-pixel */
"24 29 159 2 ",
"   c #010101",
".  c #0B0504",
"X  c #0C0C0C",
"o  c #010C0F",
"O  c #140701",
"+  c #120E0B",
"@  c #1B0C0A",
"#  c #160804",
"$  c #0F191C",
"%  c #141414",
"&  c #1D1D1D",
"*  c #240E0C",
"=  c #220707",
"-  c #31100A",
";  c #271F18",
":  c #231B17",
">  c #3B1A14",
",  c #282119",
"<  c #3D2D1E",
"1  c #362A1F",
"2  c #001C25",
"3  c #1C2629",
"4  c #042833",
"5  c #252525",
"6  c #2C2C2C",
"7  c #382F23",
"8  c #3D3025",
"9  c #2F393C",
"0  c #333333",
"q  c #3E3E3E",
"w  c #3D3834",
"e  c #481B16",
"r  c #501111",
"t  c #612101",
"y  c #4C2720",
"u  c #512323",
"i  c #463425",
"p  c #40372F",
"a  c #4C3D2F",
"s  c #773432",
"d  c #5D452C",
"f  c #51402E",
"g  c #424034",
"h  c #524232",
"j  c #5A4633",
"k  c #644A33",
"l  c #695039",
"z  c #023746",
"x  c #003848",
"c  c #3A4346",
"v  c #004A60",
"b  c #015872",
"n  c #675948",
"m  c #695A49",
"M  c #745D47",
"N  c #7F664C",
"B  c #676352",
"V  c #746151",
"C  c #811A1A",
"Z  c #973200",
"A  c #983200",
"S  c #85201D",
"D  c #98321D",
"F  c #97321D",
"G  c #A03D29",
"H  c #B13627",
"J  c #E9322E",
"K  c #FD3131",
"L  c #A6402B",
"P  c #A94838",
"I  c #B34F3B",
"U  c #B94F3D",
"Y  c #B6503C",
"T  c #85623F",
"R  c #A04545",
"E  c #B95045",
"W  c #B85C4A",
"Q  c #80684F",
"!  c #80664A",
"~  c #896D51",
"^  c #977655",
"/  c #AF6B5D",
"(  c #BA6756",
")  c #C54F4A",
"_  c #D54F4F",
"`  c #C05A45",
"'  c #C55849",
"]  c #D85047",
"[  c #D95E57",
"{  c #FE4F4F",
"}  c #E65147",
"|  c #FC5554",
" . c #CC6A57",
".. c #D36E59",
"X. c #DF6E5E",
"o. c #CA7F5E",
"O. c #E56255",
"+. c #DC7864",
"@. c #C07E77",
"#. c #E86760",
"$. c #FE6D6D",
"%. c #F26A6A",
"&. c #E07F73",
"*. c #A28261",
"=. c #AC8A67",
"-. c #AF8C69",
";. c #B38A62",
":. c #B9926A",
">. c #A38F70",
",. c #BF8279",
"<. c #A29272",
"1. c #BF9972",
"2. c #C28F5C",
"3. c #C38F60",
"4. c #D38F66",
"5. c #C6996D",
"6. c #D19269",
"7. c #E8836F",
"8. c #F28C77",
"9. c #DEAC79",
"0. c #D6A370",
"q. c #E3A57D",
"w. c #E0AD7A",
"e. c #E1B07F",
"r. c #01799C",
"t. c #178792",
"y. c #0181A2",
"u. c #108EA0",
"i. c #1394A2",
"p. c #008AB2",
"a. c #0091BC",
"s. c #02ACDF",
"d. c #00ADE0",
"f. c #04BCEE",
"g. c #07B5E3",
"h. c #14B9E3",
"j. c #01CBFE",
"k. c #08CEFC",
"l. c #1CC5F7",
"z. c #18DFFC",
"x. c #23D4E5",
"c. c #1DE9FE",
"v. c #F18F90",
"b. c #EF9595",
"n. c #D9A094",
"m. c #F4AC8D",
"M. c #E5B583",
"N. c #EEBC8B",
"B. c #FBBD98",
"V. c #EDA4A4",
"C. c #E7B8B9",
"Z. c #F4C28F",
"A. c #F4C392",
"S. c #FECB98",
"D. c #F9C896",
"F. c #F7D6A8",
"G. c #FEE7B4",
"H. c gray88",
"J. c #311A1C",
/* pixels */
"J.J.J.J.          J.J.              J.J.J.J.J.J.",
"J.J.J.J.* & 5 @ # J.J.@ @ @ @ * @ * J.J.J.J.J.J.",
"J.J.  u $.V.H./ D @   I Y Y ` ..} K r   J.J.J.J.",
"J.J.  e R @.C.@./ u > I Y E ' O.O.%.s > + J.J.J.",
"J.J.J.J.  s $.C.H.( Y Y E ) _ | b.H.@.Y *   J.J.",
"J.J.  * e P $.v.V.[ ] Y Y E ' O.7.n.W L S C   J.",
"J.J.  - D ) $.$.$.| { Y U U ` ......P D J K     ",
"J.J.  - D U O.+.X.m.B.q.q.4.o.W ..7. .` H H     ",
"J.J.  - D I ......F.G.S.D.w.4.Y ..8.+...G D     ",
"J.J.J.J.. . . >.F.1 X A.S.D.-.. k 3.i . . . J.J.",
"J.J.J.J.      <.G.,   A.S.S.=.  d 2.<       J.J.",
"J.J.J.J.J.    *.S.,   A.S.S.=.  d 2.<   J.J.J.J.",
"J.J.J.J.J.X X M -.f i N.Z.Z.:.< d T j a J.J.J.J.",
"J.J.J.J.  % 5 X   ;.9.9.w.w.0.2.d   *.S.,   J.J.",
"J.J.. 8 N N ~ w 3 d l l l l k d 7 % h M +     J.",
"J.J.  h S.N.9.V q .             % 5 X           ",
"  , -.1.M.~ i w c 0 5 6 6 5 5 & % X V ;.^ ^     ",
"  ; S.A.w.l   5 g c q q q q 0 5 %   *.S.M.w.    ",
"J.J.+ + +     t.x.h.h.q q q 6 & X   ~ e.w.w.    ",
"J.J.          i.c.k.j.c c c 9 3 $ o ! 5.5.5.    ",
"J.J.J.J.J.    i.c.k.j.l.l.d.d.d.d.d.z       J.J.",
"J.J.J.J.J.    i.z.k.j.h.h.r.p.d.d.s.z       J.J.",
"J.J.J.J.J.    y.j.j.j.s.a.  x d.d.d.z   J.J.J.J.",
"J.J.J.J.J.    y.j.f.f.b v   2 b b b 4   J.J.J.J.",
"J.J.J.J.J.    y.j.d.d.              J.J.J.J.J.J.",
"J.J.J.J.J.    g B m n     J.J.J.J.J.J.J.J.J.J.J.",
"J.J.J.J.J.    t A A A     J.J.J.J.J.J.J.J.J.J.J.",
"J.J.J.J.J.J.J.# O O O J.J.J.J.J.J.J.J.J.J.J.J.J.",
"J.J.J.J.J.J.J.        J.J.J.J.J.J.J.J.J.J.J.J.J."
};
