/* XPM */
static char *result[] = {
/* columns rows colors chars-per-pixel */
"18 29 245 2 ",
"   c black",
".  c #010000",
"X  c #010100",
"o  c #010101",
"O  c #020101",
"+  c #030101",
"@  c #020201",
"#  c #020202",
"$  c #030202",
"%  c gray1",
"&  c #040303",
"*  c #050303",
"=  c gray2",
"-  c #060606",
";  c #090301",
":  c #080302",
">  c #0A0604",
",  c #0B0805",
"<  c #000B0E",
"1  c #0E0C09",
"2  c #0F0C09",
"3  c gray6",
"4  c #100404",
"5  c #130604",
"6  c #100606",
"7  c #1D0601",
"8  c #1F0703",
"9  c #170805",
"0  c #1E0B02",
"q  c #1E0C03",
"w  c #1C0906",
"e  c #1F0B07",
"r  c gray9",
"t  c gray11",
"y  c #230601",
"u  c #230E09",
"i  c #2B0F09",
"p  c #27120D",
"a  c #311102",
"s  c #3D1806",
"d  c #301009",
"f  c #3C140C",
"g  c #281711",
"h  c #351212",
"j  c #3F1515",
"k  c #371914",
"l  c #3A1A13",
"z  c #342619",
"x  c #31271D",
"c  c #3E211A",
"v  c #021E28",
"b  c #032932",
"n  c gray13",
"m  c #222121",
"M  c #222222",
"N  c #272727",
"B  c gray16",
"V  c #2C2C2C",
"C  c #3A2D21",
"Z  c #332D2B",
"A  c #3C3024",
"S  c #3F3124",
"D  c #323131",
"F  c gray20",
"G  c #373737",
"H  c gray22",
"J  c gray23",
"K  c gray24",
"L  c #3E3E3E",
"P  c #3F3F3F",
"I  c #490C00",
"U  c #4D0D01",
"Y  c #591A02",
"T  c #5B1E01",
"R  c #461512",
"E  c #401514",
"W  c #461717",
"Q  c #461F17",
"!  c #511010",
"~  c #541C11",
"^  c #601001",
"/  c #7A1400",
"(  c #7D1901",
")  c #661614",
"_  c #731C19",
"`  c #44241D",
"'  c #4A241C",
"]  c #692300",
"[  c #433325",
"{  c #423425",
"}  c #443729",
"|  c #46382A",
" . c #493A2A",
".. c #4C3C2C",
"X. c #533E29",
"o. c #4A3530",
"O. c #4B3C39",
"+. c #5C3E38",
"@. c #69372D",
"#. c #783527",
"$. c #633633",
"%. c #53412E",
"&. c #504030",
"*. c #514131",
"=. c #544332",
"-. c #604A35",
";. c #67443C",
":. c #6A523A",
">. c #69543F",
",. c #7B5A3A",
"<. c #064A5C",
"1. c #034D5F",
"2. c #3E454E",
"3. c #1A5363",
"4. c #4D484C",
"5. c #5C574D",
"6. c gray32",
"7. c #614B41",
"8. c #8D2902",
"9. c #8F3002",
"0. c #8F370C",
"q. c #973200",
"w. c #98321D",
"e. c #832929",
"r. c #852A2A",
"t. c #883C2C",
"y. c #8E3F2E",
"u. c #9B3520",
"i. c #A53F2A",
"p. c #AD3838",
"a. c #AE3C3B",
"s. c #C72626",
"d. c #F13734",
"f. c #FE3131",
"g. c #8F4C3D",
"h. c #934D3E",
"j. c #A7432F",
"k. c #A8422D",
"l. c #AA442F",
"z. c #AA4236",
"x. c #AD4C38",
"c. c #B44E39",
"v. c #BC4B3D",
"b. c #AC553D",
"n. c #B6503B",
"m. c #B5523D",
"M. c #B5543E",
"N. c #C04C3B",
"B. c #C94839",
"V. c #DA4037",
"C. c #A65646",
"Z. c #A85747",
"A. c #A35944",
"S. c #B45B44",
"D. c #B75F45",
"F. c #BD5C48",
"G. c #8E6B46",
"H. c #846648",
"J. c #886A4A",
"K. c #9C6745",
"L. c #9D764F",
"P. c #866B51",
"I. c #876C51",
"U. c #8F7151",
"Y. c #947555",
"T. c #9D7956",
"R. c #B16942",
"E. c #BC614D",
"W. c #B4694C",
"Q. c #B36D4F",
"!. c #B96C4C",
"~. c #BA724E",
"^. c #B86352",
"/. c #B36F51",
"(. c #9F776E",
"). c #CE4141",
"_. c #E84944",
"`. c #FE4F4F",
"'. c #EC514F",
"]. c #CB6955",
"[. c #CC6854",
"{. c #CC6956",
"}. c #CF6B58",
"|. c #D46E59",
" X c #CC785C",
".X c #D2705A",
"XX c #C77E70",
"oX c #AC8155",
"OX c #AE865F",
"+X c #B1875C",
"@X c #BA8C5C",
"#X c #A08060",
"$X c #AA8867",
"%X c #B48860",
"&X c #B48B62",
"*X c #B28E6B",
"=X c #C18E5C",
"-X c #C28F5C",
";X c #C0905E",
":X c #C09466",
">X c #C79A6D",
",X c #CD9C69",
"<X c #CA9C6E",
"1X c #CD9D6C",
"2X c #D49471",
"3X c #DF9875",
"4X c #CDA171",
"5X c #C9A179",
"6X c #CAA279",
"7X c #D4A373",
"8X c #D7A877",
"9X c #E0AD7A",
"0X c #E3B27F",
"qX c #046D87",
"wX c #0B6788",
"eX c #026E89",
"rX c #007D9D",
"tX c #0178A3",
"yX c #1188B0",
"uX c #0391B5",
"iX c #2C8BA5",
"pX c #008FC2",
"aX c #0597C9",
"sX c #0DAFD8",
"dX c #01C9FB",
"fX c #02C9FC",
"gX c #00CBFE",
"hX c gray69",
"jX c #D8AD83",
"kX c #DFA497",
"lX c #E1B281",
"zX c #E6B684",
"xX c #E7B684",
"cX c #E9B784",
"vX c #E4B688",
"bX c #EABB8C",
"nX c #EABAB0",
"mX c #F0C190",
"MX c #F5C493",
"NX c #F6C593",
"BX c #FDCA97",
"VX c #FECB98",
"CX c #F5F2EE",
"ZX c #FEFEFE",
"AX c #311A1C",
/* pixels */
"AXAXAXAXAXAXAXAX& # # # # AXAXAXAXAX",
"AXAXAXAXAXAXAXAXc ` ` O.6.AXAXAXAXAX",
"AXAXAX          Z.|.|.nXZX3 @ AXAXAX",
"AXAXo @.h.h.(.hXo.' j.^.XXa.e.o AXAX",
"AXAX6 g..X}.kXCXZ u u.l.n.'.p.4 AXAX",
"o W `. X%Xn.W.&XS.n.n.n.n.n.B.f.!   ",
"% h r.A.Q.k.b./.E.F.n.D.!.m.N.V.R   ",
"AXAX  #.c.w.i.n.[.].n.~.-XM.n.n.l   ",
"o j ).v.x.9 _ d.$.+.{.3XmXg Q n.l   ",
"o E _.z.t.e ) s.;.7.C.2XVX2 p y.k * ",
"o i w.d : w.~   5X6X  I.VX2     AXAX",
"AXw f 5 > R.K.H.vX6X  I.VX2 o AXAXAX",
"AXAX    , =X,X9XNX6X  P.BX1 @ AXAXAX",
"AXAXAXAXAXO X.;X8XlXMX>.O   . O AXAX",
"AXAXAXAXAX  z ,.J.U.#X}   [ ..=.x AX",
"AXAX                      <XxXVX*.  ",
"o A *X*X$XN M t t r   %.T.:X4XzX .  ",
"o | VXbXjXH D B B m   :.>XoX+X>X{ o ",
"o | VX&.% P P P P F             AXAX",
"o | VXY.-.n V J L F   o + + + + AXAX",
"o | VXcX7X  r G K F   AXAXAXAXAXAXAX",
"o S 0X1X@X  <.sXyXwX        + AXAXAX",
"= C OXL.G.b eXgXaXtXv v v q 0 AXAXAX",
"AXAX    < gXgXgXaXpXpXpXpX0.]   AXAX",
"- 8 I 3.rXgXuX1.2.4.5.5.5.s a AXAXAX",
"o y / iXfXdXqX  ^ ( q.q.q.; @ AXAXAX",
"o y / 8.9.o o AX$ X o o o AXAXAXAXAX",
"o 7 U Y T   AXAX+         AXAXAXAXAX",
"AXAX      AXAXAXAXAXAXAXAXAXAXAXAXAX"
};
