/* XPM */
static char *result[] = {
/* columns rows colors chars-per-pixel */
"18 29 222 2 ",
"   c black",
".  c #010100",
"X  c #010101",
"o  c #020101",
"O  c #030101",
"+  c #020202",
"@  c #030302",
"#  c gray1",
"$  c #040202",
"%  c #060503",
"&  c #060404",
"*  c #0C0907",
"=  c gray4",
"-  c gray5",
";  c #100404",
":  c #100606",
">  c #190400",
",  c #1A0500",
"<  c #160805",
"1  c #170805",
"2  c #1F0A06",
"3  c #1F0B07",
"4  c #100C09",
"5  c #1C0C09",
"6  c #1D0D0A",
"7  c #1E0F0C",
"8  c #0B1418",
"9  c gray9",
"0  c gray11",
"q  c #220B09",
"w  c #280808",
"e  c #2A0E0E",
"r  c #2F0F0E",
"t  c #2F0F0F",
"y  c #28100B",
"u  c #3C1602",
"i  c #38130B",
"p  c #3C140C",
"a  c #211912",
"s  c #331010",
"d  c #3A1A13",
"f  c #2D2319",
"g  c #3C2019",
"h  c #382B1F",
"j  c #091E24",
"k  c #021E28",
"l  c #0E2B32",
"z  c #222222",
"x  c #272727",
"c  c #282828",
"v  c #292828",
"b  c #2F2E2E",
"n  c #352F2D",
"m  c #3D3125",
"M  c #313030",
"N  c #343333",
"B  c #373737",
"V  c #410B01",
"C  c #501101",
"Z  c #541D01",
"A  c #5A1E00",
"S  c #5C1F02",
"D  c #5F1613",
"F  c #571D11",
"G  c #611202",
"H  c #791400",
"J  c #7A1400",
"K  c #7F1C02",
"L  c #6C1B18",
"P  c #5F2001",
"I  c #44241D",
"U  c #4E251D",
"Y  c #5B281E",
"T  c #4C3926",
"R  c #4E3C2B",
"E  c #513F2D",
"W  c #4B3632",
"Q  c #6D2323",
"!  c #6D3024",
"~  c #623329",
"^  c #673C2F",
"/  c #643633",
"(  c #4D403E",
")  c #5F4C39",
"_  c #644A30",
"`  c #614B35",
"'  c #604039",
"]  c #68433B",
"[  c #644F3A",
"{  c #6A5036",
"}  c #74593F",
"|  c #7B5A3A",
" . c #02374A",
".. c #043F51",
"X. c #034D5F",
"o. c #155261",
"O. c #305E74",
"+. c #4E4E4E",
"@. c #59564D",
"#. c #644C42",
"$. c #6E5742",
"%. c #7C6044",
"&. c #8A2601",
"*. c #923001",
"=. c #923203",
"-. c #973200",
";. c #983302",
":. c #98321D",
">. c #852A2A",
",. c #8E2F2E",
"<. c #8A3D2D",
"1. c #8E3F2E",
"2. c #9B3520",
"3. c #A43E29",
"4. c #B03737",
"5. c #C72626",
"6. c #F13734",
"7. c #FE3131",
"8. c #844538",
"9. c #934D3E",
"0. c #A7432F",
"q. c #A8422D",
"w. c #AC4631",
"e. c #AD4338",
"r. c #B14E3A",
"t. c #B54F3A",
"y. c #BB4B3F",
"u. c #AC543C",
"i. c #B6503B",
"p. c #B6503C",
"a. c #C44A3A",
"s. c #DA4037",
"d. c #D24438",
"f. c #A05441",
"g. c #A65646",
"h. c #A75747",
"j. c #B45B43",
"k. c #BE5B47",
"l. c #846648",
"z. c #886A4B",
"x. c #8D6E4E",
"c. c #9B6746",
"v. c #8A6F53",
"b. c #917152",
"n. c #9C7A56",
"m. c #927559",
"M. c #9C7C5D",
"N. c #9D7D5E",
"B. c #B86145",
"V. c #B06942",
"C. c #BC614D",
"Z. c #B3684C",
"A. c #B86B4C",
"S. c #BD774F",
"D. c #BB6757",
"F. c #B26E50",
"G. c #B36F51",
"H. c #9E736A",
"J. c #CE4141",
"K. c #E84944",
"L. c #FE4F4F",
"P. c #F4504F",
"I. c #CC6853",
"U. c #CB6955",
"Y. c #CC6956",
"T. c #CF6B58",
"R. c #D46E59",
"E. c #D2705A",
"W. c #D1745B",
"Q. c #C37B6D",
"!. c #A08060",
"~. c #B28962",
"^. c #B48B62",
"/. c #B28E6B",
"(. c #B99068",
"). c #C18E5B",
"_. c #C08D5C",
"`. c #C1905D",
"'. c #C0905E",
"]. c #CA9B6B",
"[. c #CE9B68",
"{. c #C59F77",
"}. c #C69E77",
"|. c #DC9E78",
" X c #E39F79",
".X c #C8A078",
"XX c #CCA57E",
"oX c #D7A878",
"OX c #DAAB7A",
"+X c #E0AD7A",
"@X c #247B91",
"#X c #0B7FA8",
"$X c #1091B9",
"%X c #2588A1",
"&X c #29A1BF",
"*X c #008FC2",
"=X c #05A5D6",
"-X c #0DAFD8",
";X c #2DA7C5",
":X c #2BADCE",
">X c #2EB0D1",
",X c #2FB8DB",
"<X c #00CBFE",
"1X c #3DCEF2",
"2X c #30D2FC",
"3X c #37D6FE",
"4X c #38D4FB",
"5X c #38D4FC",
"6X c gray69",
"7X c #DDA092",
"8X c #E3B381",
"9X c #E3B688",
"0X c #E6B98A",
"qX c #F1C191",
"wX c #F2C292",
"eX c #F5C493",
"rX c #F6C593",
"tX c #F9C896",
"yX c #EEC7BF",
"uX c #F5F2EE",
"iX c gray95",
"pX c #311A1C",
/* pixels */
"pXpXpXpXpXpXpXpX+ + + + + pXpXpXpXpX",
"pXpXpXpXpXpXpXpXg I I ( +.pXpXpXpXpX",
"pXpXpXX         h.R.R.yXiX    pXpXpX",
"pXpXX ~ 9.9.H.6XW U 0.D.Q.4.Q X pXpX",
"pXpX: 8.E.T.7XuXn y 2.w.p.P.,.; pXpX",
"@ s L.W.~.i.Z.^.j.i.i.i.i.i.d.7.w X ",
"pXe >.f.F.q.u.G.C.k.i.B.A.i.a.s.q X ",
"pXpX  ! t.:.3.i.U.I.i.S._.i.i.i.6 X ",
"$ t J.y.r.1 L 6./ ' Y. X0X5 Y i.6 X ",
"@ r K.e.<.3 D 5.] #.g.|.wX  d 1.7 & ",
"@ 2 :.i X :.F   .X}.  N.wX      pXpX",
"pX1 p < X V.c.l.9X}.  N.wX    pXpXpX",
"pXpX    X ).].+XrX}.  M.qX    pXpXpX",
"pXpXpXpXpXo T '.oX8XeX) o pXpXpXpXpX",
"pXpXpXpXpX- h | z.b.!.m   pXpXpXpXpX",
"pXpXpXX X x 9                 pXpXpX",
"pXpXX X X x z 0 m.v.  ` n./.$.X pXpX",
"pXpX4 % X v c x XX{.4 x.OXtXv.  pXpX",
"@ f +XE X B M x (.+X+X[.`.+X%.  pXpX",
"@ f +XE X B N b [ } } { _ } R O pXpX",
"@ f +XE X B B B =             pXpXpX",
"pXpXa * X #X$X-X:X%X  O pXpXpXpXpXpX",
"pXpX, 8 k *X=X<X2X>Xl j pXpXpXpXpXpX",
"@ > J O.*X*X=X<X2X3X3Xo.      pXpXpX",
"@ > J ^ @. ...X.,X3X3X&X@XA u & pXpX",
"# > H &.*.      ;X4X5X5X1X-.Z   pXpX",
"pXpX. X o pXpX  G K ;.;.=.X X pXpXpX",
"pXpX    X pXpX  V C P P S   pXpXpXpX",
"pXpXpXpXpXpXpXpX          pXpXpXpXpX"
};
