/* XPM */
static char *_5a06219d93c40b3e306eb19970b787cP2wcLreRfnZa9oEh[] = {
/* columns rows colors chars-per-pixel */
"50 50 212 2 ",
"   c #45160F",
".  c #4C130D",
"X  c #541207",
"o  c #581204",
"O  c #54130B",
"+  c #59140B",
"@  c #520F14",
"#  c #471614",
"$  c #4C1513",
"%  c #451912",
"&  c #4C1913",
"*  c #461719",
"=  c #4C1518",
"-  c #4C1919",
";  c #521512",
":  c #591310",
">  c #531915",
",  c #5D1C16",
"<  c #511819",
"1  c #5C1B19",
"2  c #7A1C0F",
"3  c #641D15",
"4  c #6C1E16",
"5  c #661F1F",
"6  c #6D1F1B",
"7  c #741E15",
"8  c #731F1A",
"9  c #5F221E",
"0  c #662116",
"q  c #6C2216",
"w  c #66221B",
"e  c #6C221B",
"r  c #6D2A1D",
"t  c #732215",
"y  c #7B2414",
"u  c #7E2817",
"i  c #72221B",
"p  c #7B251B",
"a  c #73291E",
"s  c #7C291D",
"d  c #6F1F20",
"f  c #721F22",
"g  c #5F2220",
"h  c #6C2220",
"j  c #6C2B23",
"k  c #732321",
"l  c #762E26",
"z  c #7C2B21",
"x  c #6D322B",
"c  c #71312B",
"v  c #763B2E",
"b  c #79392F",
"n  c #763A31",
"m  c #7A3A31",
"M  c #7D4239",
"N  c #83240D",
"B  c #822315",
"V  c #85261C",
"C  c #852A1D",
"Z  c #8B2C1D",
"A  c #962E1E",
"S  c #9C2E1E",
"D  c #97301D",
"F  c #9A311F",
"G  c #A12E1E",
"H  c #A2321E",
"J  c #A2381F",
"K  c #822721",
"L  c #882722",
"P  c #842A22",
"I  c #8B2B22",
"U  c #942E23",
"Y  c #9B2E23",
"T  c #992F2A",
"R  c #833022",
"E  c #8B3527",
"W  c #963224",
"Q  c #9C3224",
"!  c #93322A",
"~  c #9B342B",
"^  c #9A3B2E",
"/  c #823F38",
"(  c #9E3D30",
")  c #A33323",
"_  c #AA3524",
"`  c #A53924",
"'  c #A93A24",
"]  c #A33629",
"[  c #A43B2A",
"{  c #AC3C2B",
"}  c #B33C26",
"|  c #BC3E26",
" . c #B33729",
".. c #B43D2B",
"X. c #BC3E2B",
"o. c #A43C32",
"O. c #AD3D32",
"+. c #B43E31",
"@. c #BC3F31",
"#. c #C13F25",
"$. c #C23E2B",
"%. c #874739",
"&. c #8A463C",
"*. c #954336",
"=. c #9A493A",
"-. c #AD412D",
";. c #AF482F",
":. c #B64227",
">. c #BC4126",
",. c #B5422D",
"<. c #BC422C",
"1. c #B54B2E",
"2. c #BB482E",
"3. c #A44132",
"4. c #AC4433",
"5. c #AF4C33",
"6. c #A24A38",
"7. c #B44432",
"8. c #BB4432",
"9. c #B64C35",
"0. c #BB4B34",
"q. c #B7443B",
"w. c #B54F3C",
"e. c #BB4C3A",
"r. c #AC523C",
"t. c #B85035",
"y. c #B3503C",
"u. c #BB533B",
"i. c #C14127",
"p. c #C1412C",
"a. c #C24130",
"s. c #C14B33",
"d. c #C04F38",
"f. c #C0523E",
"g. c #8A4641",
"h. c #945242",
"j. c #985547",
"k. c #9D5B4F",
"l. c #9E5C50",
"z. c #AB5442",
"x. c #AA5E4D",
"c. c #B75744",
"v. c #AB5D54",
"b. c #B5644E",
"n. c #A36455",
"m. c #AC6252",
"M. c #B36552",
"N. c #BD6454",
"B. c #BC7B70",
"V. c #C45C44",
"C. c #C95A45",
"Z. c #C55E4A",
"A. c #CA5E4A",
"S. c #C3634D",
"D. c #CB6149",
"F. c #C26452",
"G. c #CA6451",
"H. c #CD6A53",
"J. c #CA6F5A",
"K. c #D06D54",
"L. c #C6715A",
"P. c #CD745C",
"I. c #CF7A5E",
"U. c #D4765A",
"Y. c #D6785F",
"T. c #C57463",
"R. c #CB7561",
"E. c #CB7A63",
"W. c #C97469",
"Q. c #C67F6E",
"!. c #CB7D6B",
"~. c #D37562",
"^. c #D27A64",
"/. c #DB7B64",
"(. c #DD7B65",
"). c #D57C6C",
"_. c #C57F70",
"`. c #E17E65",
"'. c #C6816C",
"]. c #CA816D",
"[. c #C58A6E",
"{. c #D5846C",
"}. c #D98668",
"|. c #DD856E",
" X c #DD8A6D",
".X c #C68172",
"XX c #C98070",
"oX c #CB867C",
"OX c #CE8B7A",
"+X c #D28371",
"@X c #DC8672",
"#X c #D58B75",
"$X c #DE8B73",
"%X c #D88C71",
"&X c #DB8D73",
"*X c #DB8C75",
"=X c #DD8D75",
"-X c #D48D7A",
";X c #DB8D79",
":X c #D98E79",
">X c #D98D7E",
",X c #D69177",
"<X c #D4907B",
"1X c #DB9078",
"2X c #E2856D",
"3X c #EA836E",
"4X c #E28571",
"5X c #E28A74",
"6X c #E08A76",
"7X c #E08D7B",
"8X c #D48F81",
"9X c #DB8F80",
/* pixels */
"% ; $ - - & & & & & $ - $ $ & & & > - ; $ & & & & & & & & & & & & & & & - $ $ $ & & & & & & & & > % ",
"O q.r.=X<X:X>X>X>X>XOX$ ; 8X>X>X>X:X:X4.4.&X1X:X:X>X>X>X>X>X9X>X9X9X>X&.; R ;.L.-X>X>X>X>X>X>X>X<XO ",
"O $.0.6X:X:X&X&X&X&X+X$ O :X*X*X*X*X$X8.X.|.=X=X6X$X$X=X=X=X&X&X=X=X$X&.$ C >.H.*X&X&X&X&X&X&X&X&XO ",
"O X.<.s.8.8.e.8.0.e.q.$ $ :X6X0.<.<.<.<.<.<.8.] ^ 1.2.<.<.2.8.8.<.`.#Xg.- h.&XG.8.8.8.8.q.0.8.0.<.O ",
"O X.X.<.<.<.| <.>.i.+.& $ 6X6X,.X.$.X.<.<.X.<.G W >.i.| <.:.<.X.:.}.&X&.% h.6XG.<.X.X.X.#.>.<.<.<.O ",
"+ X.X.<.<.<.-.V B <.,.& $ u.f.<.$.$.<.(.(.8.<.....Q Q L z ' p.$.<.s.u.P $ z 4.q.<.X.<.X.<.-.V u u + ",
"+ X.X.<.<.<.4.e 7 <.,.& $ 8.p.<.<.$.,.$X=X0.<.p.<.Q U p w ] p.#.<.<.>.p - p Q { <.>.<.2.>.^ 4 q q + ",
"O >.,.>...~ [ !.R.<.4.$ . ~ ) X.>.J Q u.d...>.} >./.E.^ I ' | _ ~ ..| s % 3 i Z ~ ' >.X.+.7.{ { { O ",
"O X.X.$...T Q :X6X,.O.; $ ! Y 8.<.) Y 8.$.X.p.$.$.@X:X3.!  .$._ Y { :.s $ , 4 C Y ' <.X.X.X.<.<.$.O ",
". U Z Z I p p =.*.V I ; $ p y C Z p p Z Z H.P.W Z *.&.L p C I C p C Z 4 $ , e i p r.U.r.Z Z I I Z . ",
"  e q e h i h e k e w $ $ e e e i 6 6 e e XX9Xp e h h 8 e w h e e e e 1 - 1 d e h v.*Xv.e q 6 i f   ",
"$ , 1 1 1 1 , , 1 1 1 ; . , 1 1 1 1 1 1 1 k.x.1 , 1 1 1 1 1 1 1 , , 1 ; $ > 1 1 , %.n.%.1 1 1 1 , $ ",
"= $ $ $ $ $ $ $ $ $ $ $ $ $ $ $ $ $ $ $ $ - O * $ $ $ $ $ % % % % $ % $ $ $ $ $ $ = = $ % % % % $ = ",
"$ n n n n n m n m i e m n b v v v v n n v e t $ = v n n v m b m b e q l n v n b v v v v b b b b n $ ",
"+ #X*X*X*X*X&X&X3X8.9.=X:X=X*X*X*X*X*X*X=X8.<.+ $ &X=X*X*X#X*X*X*Xu.#.K.,X&X*X&X*X*X*X*X*X*X*X*X#X+ ",
". ~.Y.I.^.~.~.I.Y...8.^.^.~.^.E.R.P.~.~.~.Z.V.+ . R.U.T.T.P.P.L.L.9.>.D.~.P.^.{.*X+XR.^.*X:X*X*X*X. ",
"+ 8.<.p.a.p.p.<.<.p.<.,.<.p.p.p.<.p.p.<.8.{.=X> ; ..p.~ Q ..<.) W { <.| <.<.$.D.&XH.@.Z.*X1X*X:X*X+ ",
"O $.,.4.,.<.<.<.:.2.<.,.7.7.7.<.<.| <.<.2.).@X> $ { >.) G } <.H F ..p.i.<.:...F.[.S.X.V.2X{.*X:X*XO ",
"X $.{ q p a.<.<.X.<.<.Y ! i 7 q.<.<.<.<.<.) W : $ O.i.<.i.<.i.| <.>.p.<.<.] Q L 8 U <.<.X.u.=X:X*XX ",
"O @.O.e K 8.,.<.<.8.,.W ! t 2 8.<.<.<.<.,.W U O $ { 7.<.p.X.X...,.<.$.<.<._ Y C t Z ..<.>.u.*X=X XO ",
"o p.s.*X).D Q <.X.p.<.<.:.:.<.| <.| <.S W t i $ $ w 7 ' p.) Q Y Q { <.p.>.| <.' W Q S ` <.,.W W Q o ",
"O ,.9.#XW.E W ,.:.,.,.,.,.:...+.7.8.0.Y ! e e $ $ w t [ } Q A U U { ..} ......] Y U U ] +.O.Y U U O ",
". 7 t w i i 4 t i i q q q q q e t &X*Xt q e i . $ w e e 6 i e e e i i e e q 7 e q e q 7 t q e q q . ",
"$ e q 0 e e 0 0 0 w 0 q q w 0 0 3 -XOXe q q w O $ 0 q q q 0 0 q w 0 0 0 0 e 6 q q w 0 0 0 0 q q 0 $ ",
"* ; $ $ $ $ $ $ $ $ $ $ $ $ $ & > ; . . $ $ $ $ $ . . . . $ $ $ $ . $ ; @ $ % $ $ $ $ $ $ $ $ $ $ * ",
"  O $ $ - - ; ; ; ; $ = = $ ; ; ; & $ ; $ $ ; ; + ; ; $ $ ; ; ; ; O ; ; = $ . O ; ; ; ; ; ; ; ; .   ",
"+ O.6.].Q.'.XXXXXX.XB.< ; _.'.'.'.].!.3.3.W.XX.X.X].].'.'..XXXXXXX]..XM $ z { N.XXQ.XXXXXXQ.].].'.+ ",
"X X.e.6X*X7X=X=X=X=X#X> O -X&X*X:X*X6X7.:.{.:X=X=X:X:X:X7X*X=X*X:X#X,X&.- C <.J.=X*X*X*X>X:X:X=X=XX ",
"X X...e.e.e.0.w.9.0.w.; ; -X&Xy.e.9.0.<.<.0.9.[ ^ 7.9.0.8.9.9.9.9.^.&X&.$ =.}.G.0.9.9.t.w.w.e.e.0.X ",
"X X.<.<.<.<.$.<.<.$.-.> ; :X4X,.X.$.$.<.<.>.<.H Q | >.>.>.| $.$.X.`.$X&.$ j.*XG.<.X.X.X.>.>.<.<...X ",
"X X.,.<.<.<.-.N N <.-.; ; z.9.<.:.<.<.`./.<.X...,.] Q B y ' :.:.:.e.5.l # a ^ -.:.:.:.:.7.[ B y t X ",
"O a.,.<.<.8.7.q t <...& $ 7.<.<.<.<.,.4X=X0.X.<.<.D W p i Q >...<.<.<.s # i ~ { <.<.>.<.<.( e 0 0 O ",
"O X.,.<.,.] [ m.x.,.,.& $ [ ' <.<.' ' A.A.<.X.X.X.S.F.E L [ >.' _ ..<.s - 0 p U ' } >.:.<.{ W W W O ",
"O X.,.<.,.Q ^ :X6X8.7.& $ W W 8.8.Q Y 8.<.<.<.<.<.6X7X=.Q { >.Q W { <.s - , e K W { :.,.<.<.2.2.<.O ",
"O ) Q Q Q C R m.b.Q Q & $ P V ) Q C C Q Q V.A.' ) M.M.E Z W H Z C W Q i & , e k V 4.D.e.~ ~ Q Q Q O ",
". e e e e e e i e e w $ $ w e e e e e e e ].:Xa e i e e e e e e e e e , $ , i e e x.#Xv.e q e e e . ",
". 1 , , , , , , , , , $ $ 1 , , , , , , , j.k.w , , , 1 , , , , , , , ; $ > 1 1 , / l./ , , , , , . ",
"$ $ $ $ $ $ & & & & $ $ = $ $ $ $ $ $ $ $ & > $ $ & & & & $ $ $ $ ; $ $ $ $ $ ; $ $ & $ $ $ $ $ $ $ ",
"$ x x x x x c x c 4 0 x x x x x x x x x x w 0 $ $ c c c c x x x c e 4 j x x x c c x x x x x x x x $ ",
". *X,X-X-X-X#X-X6X,.5.#X-X-X-X-X-X-X-X-X#Xe.0.: $ oX&XOX#X-X#X#X-Xc...L.-X-X-X#X-X-X-X-X-X-X-X-X:X. ",
"O 4X2X|.|.|.|.4X3XX.<.2X@X2X|.|.2X|.|.2X4Xu.9.: $ +X2X+X{.{.2X{.@Xu.<.H.|.|.4X&X-X@X2X@X:X:X:X:X:XO ",
"X 8.8.<.<.<.:.8.,.p.p.8.8.<.<.<.<.2.2.,.7.{.&X> $ 4.<.Q W ..8.) W ..$.<.8.<.8.G.*XH.<.S.:X:X:X:X:XX ",
"X <.2.4.7.2.| <.<.p.p.....,.,.p.p.| >.<.<.(.@X> $ ..| H Q } <._ F  .$.<.<.<.8.G.+XH.p.C.2X@X:X:X:XX ",
"O <.{ i V <.X.2.<.<.,.D W 7 2 <.<.<.<.<.8.Q W O $ } <.X.8.| <.X.<.<.p.<.>.` A K w Z X.<.:.c.:X:X:XO ",
"O <.O.r s <...2.<.<.<.F W t 7 7.<.<.<.8.@.Q T O $ 3.7.X.#.| <.X.X.<.X.X.<.' W L i I ,.<.| f.@X@X#XO ",
"O <.e.:X).W ) <.<.<.p.<.8.0.8.<.<.<.<.S Y 7 8 $ $ q t [ | _ F S S  .X.$.$.<.8.[ W W Y _ <.{ W W W O ",
"+ 8.t.2X^.W F ,.8.,.,.,.,.,.<.,.,.,.q.Y ! q w ; $ 5 i o.7.Q W U A { ,.,.<.,.,._ D W W ] ,.-.D D ! O ",
". 2 t a e k e i 8 8 8 8 8 8 8 7 7 $X$Xt q q e ; $ w e i 7 i 8 8 i 8 8 8 8 8 8 8 8 8 i 8 7 p i 6 7 . ",
"$ e q w w e e e e e e e e e e 4 3 -X-Xr w 6 e ; $ q e e 5 q q q q w w w w e e w e e e h e e e h e # ",
"# > ; ; ; O ; ; ; ; : : : > ; ; > 9 g > ; ; ; $ $ > > : ; : : : ; ; ; ; ; : : : : ; ; ; O ; ; : ; # "
};
